{
	"asset":{
		"generator":"Khronos glTF Blender I/O v5.2.40",
		"version":"2.0"
	},
	"scene":0,
	"scenes":[
		{
			"name":"Scene",
			"nodes":[
				0,
				1,
				2,
				3,
				4,
				5,
				6,
				7,
				8,
				9,
				10,
				11,
				12,
				13,
				14,
				15,
				16,
				17,
				18,
				19,
				20,
				21,
				22,
				23,
				24,
				25,
				26,
				27,
				28,
				29,
				30,
				31,
				32,
				33,
				34,
				35,
				36,
				37,
				38,
				39,
				40,
				41,
				42,
				43,
				44,
				45,
				46,
				47,
				48,
				49,
				50,
				51,
				52,
				53,
				54,
				55,
				56,
				57,
				58,
				59,
				60,
				61,
				62
			]
		}
	],
	"nodes":[
		{
			"mesh":0,
			"name":"Case",
			"rotation":[
				-0.70710688829422,
				0,
				0,
				0.7071066498756409
			],
			"scale":[
				0.04023167863488197,
				0.04023165628314018,
				0.04023165628314018
			],
			"translation":[
				0.2873843014240265,
				0.0028769439086318016,
				-0.1652112603187561
			]
		},
		{
			"mesh":1,
			"name":"Keycaps.001",
			"rotation":[
				-0.6729508638381958,
				0,
				0,
				0.7396872639656067
			],
			"scale":[
				0.002310764044523239,
				0.002310763578861952,
				0.002310763578861952
			],
			"translation":[
				0.2786675989627838,
				0.08215100318193436,
				-0.1956675797700882
			]
		},
		{
			"mesh":2,
			"name":"Keycaps.006",
			"rotation":[
				-0.6729508638381958,
				0,
				0,
				0.7396872639656067
			],
			"scale":[
				0.002310764044523239,
				0.002310763578861952,
				0.002310763578861952
			],
			"translation":[
				0.2786675989627838,
				0.08215100318193436,
				-0.1956675797700882
			]
		},
		{
			"mesh":3,
			"name":"Keycaps.011",
			"rotation":[
				-0.6729508638381958,
				0,
				0,
				0.7396872639656067
			],
			"scale":[
				0.002310764044523239,
				0.002310763578861952,
				0.002310763578861952
			],
			"translation":[
				0.2786675989627838,
				0.08215100318193436,
				-0.1956675797700882
			]
		},
		{
			"mesh":4,
			"name":"Keycaps.016",
			"rotation":[
				-0.6729508638381958,
				0,
				0,
				0.7396872639656067
			],
			"scale":[
				0.002310764044523239,
				0.002310763578861952,
				0.002310763578861952
			],
			"translation":[
				0.2786675989627838,
				0.08215100318193436,
				-0.1956675797700882
			]
		},
		{
			"mesh":5,
			"name":"Keycaps.023",
			"rotation":[
				-0.6729508638381958,
				0,
				0,
				0.7396872639656067
			],
			"scale":[
				0.002310764044523239,
				0.002310763578861952,
				0.002310763578861952
			],
			"translation":[
				0.2786675989627838,
				0.08215100318193436,
				-0.1956675797700882
			]
		},
		{
			"mesh":6,
			"name":"Keycaps.028",
			"rotation":[
				-0.6729508638381958,
				0,
				0,
				0.7396872639656067
			],
			"scale":[
				0.002310764044523239,
				0.002310763578861952,
				0.002310763578861952
			],
			"translation":[
				0.2786675989627838,
				0.08215100318193436,
				-0.1956675797700882
			]
		},
		{
			"mesh":7,
			"name":"Keycaps.031",
			"rotation":[
				-0.6729508638381958,
				0,
				0,
				0.7396872639656067
			],
			"scale":[
				0.002310764044523239,
				0.002310763578861952,
				0.002310763578861952
			],
			"translation":[
				0.2786675989627838,
				0.08215100318193436,
				-0.1956675797700882
			]
		},
		{
			"mesh":8,
			"name":"Keycaps.036",
			"rotation":[
				-0.6729508638381958,
				0,
				0,
				0.7396872639656067
			],
			"scale":[
				0.002310764044523239,
				0.002310763578861952,
				0.002310763578861952
			],
			"translation":[
				0.2786675989627838,
				0.08215100318193436,
				-0.1956675797700882
			]
		},
		{
			"mesh":9,
			"name":"Keycaps.041",
			"rotation":[
				-0.6729508638381958,
				0,
				0,
				0.7396872639656067
			],
			"scale":[
				0.002310764044523239,
				0.002310763578861952,
				0.002310763578861952
			],
			"translation":[
				0.2786675989627838,
				0.08215100318193436,
				-0.1956675797700882
			]
		},
		{
			"mesh":10,
			"name":"Keycaps.047",
			"rotation":[
				-0.6729508638381958,
				0,
				0,
				0.7396872639656067
			],
			"scale":[
				0.002310764044523239,
				0.002310763578861952,
				0.002310763578861952
			],
			"translation":[
				0.2786675989627838,
				0.08215100318193436,
				-0.1956675797700882
			]
		},
		{
			"mesh":11,
			"name":"Keycaps.050",
			"rotation":[
				-0.6729508638381958,
				0,
				0,
				0.7396872639656067
			],
			"scale":[
				0.002310764044523239,
				0.002310763578861952,
				0.002310763578861952
			],
			"translation":[
				0.2786675989627838,
				0.08215100318193436,
				-0.1956675797700882
			]
		},
		{
			"mesh":12,
			"name":"Keycaps.056",
			"rotation":[
				-0.6729508638381958,
				0,
				0,
				0.7396872639656067
			],
			"scale":[
				0.002310764044523239,
				0.002310763578861952,
				0.002310763578861952
			],
			"translation":[
				0.2786675989627838,
				0.08215100318193436,
				-0.1956675797700882
			]
		},
		{
			"mesh":13,
			"name":"Keycaps.061",
			"rotation":[
				-0.6729508638381958,
				0,
				0,
				0.7396872639656067
			],
			"scale":[
				0.002310764044523239,
				0.002310763578861952,
				0.002310763578861952
			],
			"translation":[
				0.2786675989627838,
				0.08215100318193436,
				-0.1956675797700882
			]
		},
		{
			"mesh":14,
			"name":"Keycaps.067",
			"rotation":[
				-0.6729508638381958,
				0,
				0,
				0.7396872639656067
			],
			"scale":[
				0.002310764044523239,
				0.002310763578861952,
				0.002310763578861952
			],
			"translation":[
				0.2786675989627838,
				0.08215100318193436,
				-0.1956675797700882
			]
		},
		{
			"mesh":15,
			"name":"Keycaps.070",
			"rotation":[
				-0.6729508638381958,
				0,
				0,
				0.7396872639656067
			],
			"scale":[
				0.002310764044523239,
				0.002310763578861952,
				0.002310763578861952
			],
			"translation":[
				0.2786675989627838,
				0.08215100318193436,
				-0.1956675797700882
			]
		},
		{
			"mesh":16,
			"name":"Keycaps.076",
			"rotation":[
				-0.6729508638381958,
				0,
				0,
				0.7396872639656067
			],
			"scale":[
				0.002310764044523239,
				0.002310763578861952,
				0.002310763578861952
			],
			"translation":[
				0.2786675989627838,
				0.08215100318193436,
				-0.1956675797700882
			]
		},
		{
			"mesh":17,
			"name":"Keycaps.080",
			"rotation":[
				-0.6729508638381958,
				0,
				0,
				0.7396872639656067
			],
			"scale":[
				0.002310764044523239,
				0.002310763578861952,
				0.002310763578861952
			],
			"translation":[
				0.2786675989627838,
				0.08215100318193436,
				-0.1956675797700882
			]
		},
		{
			"mesh":18,
			"name":"Keycaps.086",
			"rotation":[
				-0.6729508638381958,
				0,
				0,
				0.7396872639656067
			],
			"scale":[
				0.002310764044523239,
				0.002310763578861952,
				0.002310763578861952
			],
			"translation":[
				0.2786675989627838,
				0.08215100318193436,
				-0.1956675797700882
			]
		},
		{
			"mesh":19,
			"name":"Keycaps.090",
			"rotation":[
				-0.6729508638381958,
				0,
				0,
				0.7396872639656067
			],
			"scale":[
				0.002310764044523239,
				0.002310763578861952,
				0.002310763578861952
			],
			"translation":[
				0.2786675989627838,
				0.08215100318193436,
				-0.1956675797700882
			]
		},
		{
			"mesh":20,
			"name":"Keycaps.095",
			"rotation":[
				-0.6729508638381958,
				0,
				0,
				0.7396872639656067
			],
			"scale":[
				0.002310764044523239,
				0.002310763578861952,
				0.002310763578861952
			],
			"translation":[
				0.2786675989627838,
				0.08215100318193436,
				-0.1956675797700882
			]
		},
		{
			"mesh":21,
			"name":"Keycaps.102",
			"rotation":[
				-0.6729508638381958,
				0,
				0,
				0.7396872639656067
			],
			"scale":[
				0.002310764044523239,
				0.002310763578861952,
				0.002310763578861952
			],
			"translation":[
				0.2786675989627838,
				0.08215100318193436,
				-0.1956675797700882
			]
		},
		{
			"mesh":22,
			"name":"Keycaps.107",
			"rotation":[
				-0.6729508638381958,
				0,
				0,
				0.7396872639656067
			],
			"scale":[
				0.002310764044523239,
				0.002310763578861952,
				0.002310763578861952
			],
			"translation":[
				0.2786675989627838,
				0.08215100318193436,
				-0.1956675797700882
			]
		},
		{
			"mesh":23,
			"name":"Keycaps.112",
			"rotation":[
				-0.6729508638381958,
				0,
				0,
				0.7396872639656067
			],
			"scale":[
				0.002310764044523239,
				0.002310763578861952,
				0.002310763578861952
			],
			"translation":[
				0.2786675989627838,
				0.08215100318193436,
				-0.1956675797700882
			]
		},
		{
			"mesh":24,
			"name":"Keycaps.117",
			"rotation":[
				-0.6729508638381958,
				0,
				0,
				0.7396872639656067
			],
			"scale":[
				0.002310764044523239,
				0.002310763578861952,
				0.002310763578861952
			],
			"translation":[
				0.2786675989627838,
				0.08215100318193436,
				-0.1956675797700882
			]
		},
		{
			"mesh":25,
			"name":"Keycaps.122",
			"rotation":[
				-0.6729508638381958,
				0,
				0,
				0.7396872639656067
			],
			"scale":[
				0.002310764044523239,
				0.002310763578861952,
				0.002310763578861952
			],
			"translation":[
				0.2786675989627838,
				0.08215100318193436,
				-0.1956675797700882
			]
		},
		{
			"mesh":26,
			"name":"Keycaps.127",
			"rotation":[
				-0.6729508638381958,
				0,
				0,
				0.7396872639656067
			],
			"scale":[
				0.002310764044523239,
				0.002310763578861952,
				0.002310763578861952
			],
			"translation":[
				0.2786675989627838,
				0.08215100318193436,
				-0.1956675797700882
			]
		},
		{
			"mesh":27,
			"name":"Keycaps.134",
			"rotation":[
				-0.6729508638381958,
				0,
				0,
				0.7396872639656067
			],
			"scale":[
				0.002310764044523239,
				0.002310763578861952,
				0.002310763578861952
			],
			"translation":[
				0.2786675989627838,
				0.08215100318193436,
				-0.1956675797700882
			]
		},
		{
			"mesh":28,
			"name":"Keycaps.136",
			"rotation":[
				-0.6729508638381958,
				0,
				0,
				0.7396872639656067
			],
			"scale":[
				0.002310764044523239,
				0.002310763578861952,
				0.002310763578861952
			],
			"translation":[
				0.2786675989627838,
				0.08215100318193436,
				-0.1956675797700882
			]
		},
		{
			"mesh":29,
			"name":"Keycaps.142",
			"rotation":[
				-0.6729508638381958,
				0,
				0,
				0.7396872639656067
			],
			"scale":[
				0.002310764044523239,
				0.002310763578861952,
				0.002310763578861952
			],
			"translation":[
				0.2786675989627838,
				0.08215100318193436,
				-0.1956675797700882
			]
		},
		{
			"mesh":30,
			"name":"Keycaps.147",
			"rotation":[
				-0.6729508638381958,
				0,
				0,
				0.7396872639656067
			],
			"scale":[
				0.002310764044523239,
				0.002310763578861952,
				0.002310763578861952
			],
			"translation":[
				0.2786675989627838,
				0.08215100318193436,
				-0.1956675797700882
			]
		},
		{
			"mesh":31,
			"name":"Keycaps.152",
			"rotation":[
				-0.6729508638381958,
				0,
				0,
				0.7396872639656067
			],
			"scale":[
				0.002310764044523239,
				0.002310763578861952,
				0.002310763578861952
			],
			"translation":[
				0.2786675989627838,
				0.08215100318193436,
				-0.1956675797700882
			]
		},
		{
			"mesh":32,
			"name":"Keycaps.157",
			"rotation":[
				-0.6729508638381958,
				0,
				0,
				0.7396872639656067
			],
			"scale":[
				0.002310764044523239,
				0.002310763578861952,
				0.002310763578861952
			],
			"translation":[
				0.2786675989627838,
				0.08215100318193436,
				-0.1956675797700882
			]
		},
		{
			"mesh":33,
			"name":"Keycaps.161",
			"rotation":[
				-0.6729508638381958,
				0,
				0,
				0.7396872639656067
			],
			"scale":[
				0.002310764044523239,
				0.002310763578861952,
				0.002310763578861952
			],
			"translation":[
				0.2786675989627838,
				0.08215100318193436,
				-0.1956675797700882
			]
		},
		{
			"mesh":34,
			"name":"Keycaps.167",
			"rotation":[
				-0.6729508638381958,
				0,
				0,
				0.7396872639656067
			],
			"scale":[
				0.002310764044523239,
				0.002310763578861952,
				0.002310763578861952
			],
			"translation":[
				0.2786675989627838,
				0.08215100318193436,
				-0.1956675797700882
			]
		},
		{
			"mesh":35,
			"name":"Keycaps.173",
			"rotation":[
				-0.6729508638381958,
				0,
				0,
				0.7396872639656067
			],
			"scale":[
				0.002310764044523239,
				0.002310763578861952,
				0.002310763578861952
			],
			"translation":[
				0.2786675989627838,
				0.08215100318193436,
				-0.1956675797700882
			]
		},
		{
			"mesh":36,
			"name":"Keycaps.177",
			"rotation":[
				-0.6729508638381958,
				0,
				0,
				0.7396872639656067
			],
			"scale":[
				0.002310764044523239,
				0.002310763578861952,
				0.002310763578861952
			],
			"translation":[
				0.2786675989627838,
				0.08215100318193436,
				-0.1956675797700882
			]
		},
		{
			"mesh":37,
			"name":"Keycaps.182",
			"rotation":[
				-0.6729508638381958,
				0,
				0,
				0.7396872639656067
			],
			"scale":[
				0.002310764044523239,
				0.002310763578861952,
				0.002310763578861952
			],
			"translation":[
				0.2786675989627838,
				0.08215100318193436,
				-0.1956675797700882
			]
		},
		{
			"mesh":38,
			"name":"Keycaps.185",
			"rotation":[
				-0.6729508638381958,
				0,
				0,
				0.7396872639656067
			],
			"scale":[
				0.002310764044523239,
				0.002310763578861952,
				0.002310763578861952
			],
			"translation":[
				0.2786675989627838,
				0.08215100318193436,
				-0.1956675797700882
			]
		},
		{
			"mesh":39,
			"name":"Keycaps.192",
			"rotation":[
				-0.6729508638381958,
				0,
				0,
				0.7396872639656067
			],
			"scale":[
				0.002310764044523239,
				0.002310763578861952,
				0.002310763578861952
			],
			"translation":[
				0.2786675989627838,
				0.08215100318193436,
				-0.1956675797700882
			]
		},
		{
			"mesh":40,
			"name":"Keycaps.198",
			"rotation":[
				-0.6729508638381958,
				0,
				0,
				0.7396872639656067
			],
			"scale":[
				0.002310764044523239,
				0.002310763578861952,
				0.002310763578861952
			],
			"translation":[
				0.2786675989627838,
				0.08215100318193436,
				-0.1956675797700882
			]
		},
		{
			"mesh":41,
			"name":"Keycaps.202",
			"rotation":[
				-0.6729508638381958,
				0,
				0,
				0.7396872639656067
			],
			"scale":[
				0.002310764044523239,
				0.002310763578861952,
				0.002310763578861952
			],
			"translation":[
				0.2786675989627838,
				0.08215100318193436,
				-0.1956675797700882
			]
		},
		{
			"mesh":42,
			"name":"Keycaps.207",
			"rotation":[
				-0.6729508638381958,
				0,
				0,
				0.7396872639656067
			],
			"scale":[
				0.002310764044523239,
				0.002310763578861952,
				0.002310763578861952
			],
			"translation":[
				0.2786675989627838,
				0.08215100318193436,
				-0.1956675797700882
			]
		},
		{
			"mesh":43,
			"name":"Keycaps.212",
			"rotation":[
				-0.6729508638381958,
				0,
				0,
				0.7396872639656067
			],
			"scale":[
				0.002310764044523239,
				0.002310763578861952,
				0.002310763578861952
			],
			"translation":[
				0.2786675989627838,
				0.08215100318193436,
				-0.1956675797700882
			]
		},
		{
			"mesh":44,
			"name":"Keycaps.217",
			"rotation":[
				-0.6729508638381958,
				0,
				0,
				0.7396872639656067
			],
			"scale":[
				0.002310764044523239,
				0.002310763578861952,
				0.002310763578861952
			],
			"translation":[
				0.2786675989627838,
				0.08215100318193436,
				-0.1956675797700882
			]
		},
		{
			"mesh":45,
			"name":"Keycaps.220",
			"rotation":[
				-0.6729508638381958,
				0,
				0,
				0.7396872639656067
			],
			"scale":[
				0.002310764044523239,
				0.002310763578861952,
				0.002310763578861952
			],
			"translation":[
				0.2786675989627838,
				0.08215100318193436,
				-0.1956675797700882
			]
		},
		{
			"mesh":46,
			"name":"Keycaps.225",
			"rotation":[
				-0.6729508638381958,
				0,
				0,
				0.7396872639656067
			],
			"scale":[
				0.002310764044523239,
				0.002310763578861952,
				0.002310763578861952
			],
			"translation":[
				0.2786675989627838,
				0.08215100318193436,
				-0.1956675797700882
			]
		},
		{
			"mesh":47,
			"name":"Keycaps.230",
			"rotation":[
				-0.6729508638381958,
				0,
				0,
				0.7396872639656067
			],
			"scale":[
				0.002310764044523239,
				0.002310763578861952,
				0.002310763578861952
			],
			"translation":[
				0.2786675989627838,
				0.08215100318193436,
				-0.1956675797700882
			]
		},
		{
			"mesh":48,
			"name":"Keycaps.237",
			"rotation":[
				-0.6729508638381958,
				0,
				0,
				0.7396872639656067
			],
			"scale":[
				0.002310764044523239,
				0.002310763578861952,
				0.002310763578861952
			],
			"translation":[
				0.2786675989627838,
				0.08215100318193436,
				-0.1956675797700882
			]
		},
		{
			"mesh":49,
			"name":"Keycaps.240",
			"rotation":[
				-0.6729508638381958,
				0,
				0,
				0.7396872639656067
			],
			"scale":[
				0.002310764044523239,
				0.002310763578861952,
				0.002310763578861952
			],
			"translation":[
				0.2786675989627838,
				0.08215100318193436,
				-0.1956675797700882
			]
		},
		{
			"mesh":50,
			"name":"Keycaps.245",
			"rotation":[
				-0.6729508638381958,
				0,
				0,
				0.7396872639656067
			],
			"scale":[
				0.002310764044523239,
				0.002310763578861952,
				0.002310763578861952
			],
			"translation":[
				0.2786675989627838,
				0.08215100318193436,
				-0.1956675797700882
			]
		},
		{
			"mesh":51,
			"name":"Keycaps.251",
			"rotation":[
				-0.6729508638381958,
				0,
				0,
				0.7396872639656067
			],
			"scale":[
				0.002310764044523239,
				0.002310763578861952,
				0.002310763578861952
			],
			"translation":[
				0.2786675989627838,
				0.08215100318193436,
				-0.1956675797700882
			]
		},
		{
			"mesh":52,
			"name":"Keycaps.257",
			"rotation":[
				-0.6729508638381958,
				0,
				0,
				0.7396872639656067
			],
			"scale":[
				0.002310764044523239,
				0.002310763578861952,
				0.002310763578861952
			],
			"translation":[
				0.2786675989627838,
				0.08215100318193436,
				-0.1956675797700882
			]
		},
		{
			"mesh":53,
			"name":"Keycaps.261",
			"rotation":[
				-0.6729508638381958,
				0,
				0,
				0.7396872639656067
			],
			"scale":[
				0.002310764044523239,
				0.002310763578861952,
				0.002310763578861952
			],
			"translation":[
				0.2786675989627838,
				0.08215100318193436,
				-0.1956675797700882
			]
		},
		{
			"mesh":54,
			"name":"Keycaps.269",
			"rotation":[
				-0.6729508638381958,
				0,
				0,
				0.7396872639656067
			],
			"scale":[
				0.002310764044523239,
				0.002310763578861952,
				0.002310763578861952
			],
			"translation":[
				0.2786675989627838,
				0.08215100318193436,
				-0.1956675797700882
			]
		},
		{
			"mesh":55,
			"name":"Keycaps.272",
			"rotation":[
				-0.6729508638381958,
				0,
				0,
				0.7396872639656067
			],
			"scale":[
				0.002310764044523239,
				0.002310763578861952,
				0.002310763578861952
			],
			"translation":[
				0.2786675989627838,
				0.08215100318193436,
				-0.1956675797700882
			]
		},
		{
			"mesh":56,
			"name":"Keycaps.277",
			"rotation":[
				-0.6729508638381958,
				0,
				0,
				0.7396872639656067
			],
			"scale":[
				0.002310764044523239,
				0.002310763578861952,
				0.002310763578861952
			],
			"translation":[
				0.2786675989627838,
				0.08215100318193436,
				-0.1956675797700882
			]
		},
		{
			"mesh":57,
			"name":"Keycaps.282",
			"rotation":[
				-0.6729508638381958,
				0,
				0,
				0.7396872639656067
			],
			"scale":[
				0.002310764044523239,
				0.002310763578861952,
				0.002310763578861952
			],
			"translation":[
				0.2786675989627838,
				0.08215100318193436,
				-0.1956675797700882
			]
		},
		{
			"mesh":58,
			"name":"Keycaps.287",
			"rotation":[
				-0.6729508638381958,
				0,
				0,
				0.7396872639656067
			],
			"scale":[
				0.002310764044523239,
				0.002310763578861952,
				0.002310763578861952
			],
			"translation":[
				0.2786675989627838,
				0.08215100318193436,
				-0.1956675797700882
			]
		},
		{
			"mesh":59,
			"name":"Keycaps.292",
			"rotation":[
				-0.6729508638381958,
				0,
				0,
				0.7396872639656067
			],
			"scale":[
				0.002310764044523239,
				0.002310763578861952,
				0.002310763578861952
			],
			"translation":[
				0.2786675989627838,
				0.08215100318193436,
				-0.1956675797700882
			]
		},
		{
			"mesh":60,
			"name":"Keycaps.296",
			"rotation":[
				-0.6729508638381958,
				0,
				0,
				0.7396872639656067
			],
			"scale":[
				0.002310764044523239,
				0.002310763578861952,
				0.002310763578861952
			],
			"translation":[
				0.2786675989627838,
				0.08215100318193436,
				-0.1956675797700882
			]
		},
		{
			"mesh":61,
			"name":"Keycaps.304",
			"rotation":[
				-0.6729508638381958,
				0,
				0,
				0.7396872639656067
			],
			"scale":[
				0.002310764044523239,
				0.002310763578861952,
				0.002310763578861952
			],
			"translation":[
				0.2786675989627838,
				0.08215100318193436,
				-0.1956675797700882
			]
		},
		{
			"mesh":62,
			"name":"pcb",
			"rotation":[
				-0.70710688829422,
				0,
				0,
				0.7071066498756409
			],
			"scale":[
				0.04023167863488197,
				0.04023165628314018,
				0.04023165628314018
			],
			"translation":[
				0.2873843014240265,
				0.0028769439086318016,
				-0.1652112603187561
			]
		}
	],
	"materials":[
		{
			"doubleSided":true,
			"name":"Wood_00.002"
		},
		{
			"doubleSided":true,
			"name":"Keyboard.002"
		}
	],
	"meshes":[
		{
			"name":"Case",
			"primitives":[
				{
					"attributes":{
						"POSITION":0,
						"NORMAL":1,
						"TEXCOORD_0":2
					},
					"indices":3,
					"material":0
				},
				{
					"attributes":{
						"POSITION":4,
						"NORMAL":5,
						"TEXCOORD_0":6
					},
					"indices":7,
					"material":1
				}
			]
		},
		{
			"name":"defaultMaterial.002",
			"primitives":[
				{
					"attributes":{
						"POSITION":8,
						"NORMAL":9,
						"TEXCOORD_0":10
					},
					"indices":11,
					"material":1
				}
			]
		},
		{
			"name":"defaultMaterial.003",
			"primitives":[
				{
					"attributes":{
						"POSITION":12,
						"NORMAL":13,
						"TEXCOORD_0":14
					},
					"indices":15,
					"material":1
				}
			]
		},
		{
			"name":"defaultMaterial.004",
			"primitives":[
				{
					"attributes":{
						"POSITION":16,
						"NORMAL":17,
						"TEXCOORD_0":18
					},
					"indices":19,
					"material":1
				}
			]
		},
		{
			"name":"defaultMaterial.005",
			"primitives":[
				{
					"attributes":{
						"POSITION":20,
						"NORMAL":21,
						"TEXCOORD_0":22
					},
					"indices":23,
					"material":1
				}
			]
		},
		{
			"name":"defaultMaterial.006",
			"primitives":[
				{
					"attributes":{
						"POSITION":24,
						"NORMAL":25,
						"TEXCOORD_0":26
					},
					"indices":27,
					"material":1
				}
			]
		},
		{
			"name":"defaultMaterial.007",
			"primitives":[
				{
					"attributes":{
						"POSITION":28,
						"NORMAL":29,
						"TEXCOORD_0":30
					},
					"indices":31,
					"material":1
				}
			]
		},
		{
			"name":"defaultMaterial.008",
			"primitives":[
				{
					"attributes":{
						"POSITION":32,
						"NORMAL":33,
						"TEXCOORD_0":34
					},
					"indices":35,
					"material":1
				}
			]
		},
		{
			"name":"defaultMaterial.009",
			"primitives":[
				{
					"attributes":{
						"POSITION":36,
						"NORMAL":37,
						"TEXCOORD_0":38
					},
					"indices":39,
					"material":1
				}
			]
		},
		{
			"name":"defaultMaterial.010",
			"primitives":[
				{
					"attributes":{
						"POSITION":40,
						"NORMAL":41,
						"TEXCOORD_0":42
					},
					"indices":43,
					"material":1
				}
			]
		},
		{
			"name":"defaultMaterial.011",
			"primitives":[
				{
					"attributes":{
						"POSITION":44,
						"NORMAL":45,
						"TEXCOORD_0":46
					},
					"indices":47,
					"material":1
				}
			]
		},
		{
			"name":"defaultMaterial.012",
			"primitives":[
				{
					"attributes":{
						"POSITION":48,
						"NORMAL":49,
						"TEXCOORD_0":50
					},
					"indices":51,
					"material":1
				}
			]
		},
		{
			"name":"defaultMaterial.013",
			"primitives":[
				{
					"attributes":{
						"POSITION":52,
						"NORMAL":53,
						"TEXCOORD_0":54
					},
					"indices":55,
					"material":1
				}
			]
		},
		{
			"name":"defaultMaterial.014",
			"primitives":[
				{
					"attributes":{
						"POSITION":56,
						"NORMAL":57,
						"TEXCOORD_0":58
					},
					"indices":59,
					"material":1
				}
			]
		},
		{
			"name":"defaultMaterial.015",
			"primitives":[
				{
					"attributes":{
						"POSITION":60,
						"NORMAL":61,
						"TEXCOORD_0":62
					},
					"indices":63,
					"material":1
				}
			]
		},
		{
			"name":"defaultMaterial.016",
			"primitives":[
				{
					"attributes":{
						"POSITION":64,
						"NORMAL":65,
						"TEXCOORD_0":66
					},
					"indices":67,
					"material":1
				}
			]
		},
		{
			"name":"defaultMaterial.017",
			"primitives":[
				{
					"attributes":{
						"POSITION":68,
						"NORMAL":69,
						"TEXCOORD_0":70
					},
					"indices":71,
					"material":1
				}
			]
		},
		{
			"name":"defaultMaterial.018",
			"primitives":[
				{
					"attributes":{
						"POSITION":72,
						"NORMAL":73,
						"TEXCOORD_0":74
					},
					"indices":75,
					"material":1
				}
			]
		},
		{
			"name":"defaultMaterial.019",
			"primitives":[
				{
					"attributes":{
						"POSITION":76,
						"NORMAL":77,
						"TEXCOORD_0":78
					},
					"indices":79,
					"material":1
				}
			]
		},
		{
			"name":"defaultMaterial.020",
			"primitives":[
				{
					"attributes":{
						"POSITION":80,
						"NORMAL":81,
						"TEXCOORD_0":82
					},
					"indices":83,
					"material":1
				}
			]
		},
		{
			"name":"defaultMaterial.021",
			"primitives":[
				{
					"attributes":{
						"POSITION":84,
						"NORMAL":85,
						"TEXCOORD_0":86
					},
					"indices":87,
					"material":1
				}
			]
		},
		{
			"name":"defaultMaterial.022",
			"primitives":[
				{
					"attributes":{
						"POSITION":88,
						"NORMAL":89,
						"TEXCOORD_0":90
					},
					"indices":91,
					"material":1
				}
			]
		},
		{
			"name":"defaultMaterial.023",
			"primitives":[
				{
					"attributes":{
						"POSITION":92,
						"NORMAL":93,
						"TEXCOORD_0":94
					},
					"indices":95,
					"material":1
				}
			]
		},
		{
			"name":"defaultMaterial.024",
			"primitives":[
				{
					"attributes":{
						"POSITION":96,
						"NORMAL":97,
						"TEXCOORD_0":98
					},
					"indices":99,
					"material":1
				}
			]
		},
		{
			"name":"defaultMaterial.025",
			"primitives":[
				{
					"attributes":{
						"POSITION":100,
						"NORMAL":101,
						"TEXCOORD_0":102
					},
					"indices":103,
					"material":1
				}
			]
		},
		{
			"name":"defaultMaterial.026",
			"primitives":[
				{
					"attributes":{
						"POSITION":104,
						"NORMAL":105,
						"TEXCOORD_0":106
					},
					"indices":107,
					"material":1
				}
			]
		},
		{
			"name":"defaultMaterial.027",
			"primitives":[
				{
					"attributes":{
						"POSITION":108,
						"NORMAL":109,
						"TEXCOORD_0":110
					},
					"indices":111,
					"material":1
				}
			]
		},
		{
			"name":"defaultMaterial.028",
			"primitives":[
				{
					"attributes":{
						"POSITION":112,
						"NORMAL":113,
						"TEXCOORD_0":114
					},
					"indices":115,
					"material":1
				}
			]
		},
		{
			"name":"defaultMaterial.029",
			"primitives":[
				{
					"attributes":{
						"POSITION":116,
						"NORMAL":117,
						"TEXCOORD_0":118
					},
					"indices":119,
					"material":1
				}
			]
		},
		{
			"name":"defaultMaterial.030",
			"primitives":[
				{
					"attributes":{
						"POSITION":120,
						"NORMAL":121,
						"TEXCOORD_0":122
					},
					"indices":107,
					"material":1
				}
			]
		},
		{
			"name":"defaultMaterial.031",
			"primitives":[
				{
					"attributes":{
						"POSITION":123,
						"NORMAL":124,
						"TEXCOORD_0":125
					},
					"indices":111,
					"material":1
				}
			]
		},
		{
			"name":"defaultMaterial.032",
			"primitives":[
				{
					"attributes":{
						"POSITION":126,
						"NORMAL":127,
						"TEXCOORD_0":128
					},
					"indices":99,
					"material":1
				}
			]
		},
		{
			"name":"defaultMaterial.033",
			"primitives":[
				{
					"attributes":{
						"POSITION":129,
						"NORMAL":130,
						"TEXCOORD_0":131
					},
					"indices":103,
					"material":1
				}
			]
		},
		{
			"name":"defaultMaterial.034",
			"primitives":[
				{
					"attributes":{
						"POSITION":132,
						"NORMAL":133,
						"TEXCOORD_0":134
					},
					"indices":135,
					"material":1
				}
			]
		},
		{
			"name":"defaultMaterial.035",
			"primitives":[
				{
					"attributes":{
						"POSITION":136,
						"NORMAL":137,
						"TEXCOORD_0":138
					},
					"indices":111,
					"material":1
				}
			]
		},
		{
			"name":"defaultMaterial.036",
			"primitives":[
				{
					"attributes":{
						"POSITION":139,
						"NORMAL":140,
						"TEXCOORD_0":141
					},
					"indices":142,
					"material":1
				}
			]
		},
		{
			"name":"defaultMaterial.037",
			"primitives":[
				{
					"attributes":{
						"POSITION":143,
						"NORMAL":144,
						"TEXCOORD_0":145
					},
					"indices":146,
					"material":1
				}
			]
		},
		{
			"name":"defaultMaterial.038",
			"primitives":[
				{
					"attributes":{
						"POSITION":147,
						"NORMAL":148,
						"TEXCOORD_0":149
					},
					"indices":150,
					"material":1
				}
			]
		},
		{
			"name":"defaultMaterial.039",
			"primitives":[
				{
					"attributes":{
						"POSITION":151,
						"NORMAL":152,
						"TEXCOORD_0":153
					},
					"indices":154,
					"material":1
				}
			]
		},
		{
			"name":"defaultMaterial.040",
			"primitives":[
				{
					"attributes":{
						"POSITION":155,
						"NORMAL":156,
						"TEXCOORD_0":157
					},
					"indices":158,
					"material":1
				}
			]
		},
		{
			"name":"defaultMaterial.041",
			"primitives":[
				{
					"attributes":{
						"POSITION":159,
						"NORMAL":160,
						"TEXCOORD_0":161
					},
					"indices":162,
					"material":1
				}
			]
		},
		{
			"name":"defaultMaterial.042",
			"primitives":[
				{
					"attributes":{
						"POSITION":163,
						"NORMAL":164,
						"TEXCOORD_0":165
					},
					"indices":150,
					"material":1
				}
			]
		},
		{
			"name":"defaultMaterial.043",
			"primitives":[
				{
					"attributes":{
						"POSITION":166,
						"NORMAL":167,
						"TEXCOORD_0":168
					},
					"indices":169,
					"material":1
				}
			]
		},
		{
			"name":"defaultMaterial.044",
			"primitives":[
				{
					"attributes":{
						"POSITION":170,
						"NORMAL":171,
						"TEXCOORD_0":172
					},
					"indices":158,
					"material":1
				}
			]
		},
		{
			"name":"defaultMaterial.045",
			"primitives":[
				{
					"attributes":{
						"POSITION":173,
						"NORMAL":174,
						"TEXCOORD_0":175
					},
					"indices":176,
					"material":1
				}
			]
		},
		{
			"name":"defaultMaterial.046",
			"primitives":[
				{
					"attributes":{
						"POSITION":177,
						"NORMAL":178,
						"TEXCOORD_0":179
					},
					"indices":180,
					"material":1
				}
			]
		},
		{
			"name":"defaultMaterial.047",
			"primitives":[
				{
					"attributes":{
						"POSITION":181,
						"NORMAL":182,
						"TEXCOORD_0":183
					},
					"indices":154,
					"material":1
				}
			]
		},
		{
			"name":"defaultMaterial.048",
			"primitives":[
				{
					"attributes":{
						"POSITION":184,
						"NORMAL":185,
						"TEXCOORD_0":186
					},
					"indices":187,
					"material":1
				}
			]
		},
		{
			"name":"defaultMaterial.049",
			"primitives":[
				{
					"attributes":{
						"POSITION":188,
						"NORMAL":189,
						"TEXCOORD_0":190
					},
					"indices":176,
					"material":1
				}
			]
		},
		{
			"name":"defaultMaterial.050",
			"primitives":[
				{
					"attributes":{
						"POSITION":191,
						"NORMAL":192,
						"TEXCOORD_0":193
					},
					"indices":194,
					"material":1
				}
			]
		},
		{
			"name":"defaultMaterial.051",
			"primitives":[
				{
					"attributes":{
						"POSITION":195,
						"NORMAL":196,
						"TEXCOORD_0":197
					},
					"indices":198,
					"material":1
				}
			]
		},
		{
			"name":"defaultMaterial.052",
			"primitives":[
				{
					"attributes":{
						"POSITION":199,
						"NORMAL":200,
						"TEXCOORD_0":201
					},
					"indices":202,
					"material":1
				}
			]
		},
		{
			"name":"defaultMaterial.053",
			"primitives":[
				{
					"attributes":{
						"POSITION":203,
						"NORMAL":204,
						"TEXCOORD_0":205
					},
					"indices":206,
					"material":1
				}
			]
		},
		{
			"name":"defaultMaterial.054",
			"primitives":[
				{
					"attributes":{
						"POSITION":207,
						"NORMAL":208,
						"TEXCOORD_0":209
					},
					"indices":202,
					"material":1
				}
			]
		},
		{
			"name":"defaultMaterial.055",
			"primitives":[
				{
					"attributes":{
						"POSITION":210,
						"NORMAL":211,
						"TEXCOORD_0":212
					},
					"indices":213,
					"material":1
				}
			]
		},
		{
			"name":"defaultMaterial.056",
			"primitives":[
				{
					"attributes":{
						"POSITION":214,
						"NORMAL":215,
						"TEXCOORD_0":216
					},
					"indices":206,
					"material":1
				}
			]
		},
		{
			"name":"defaultMaterial.057",
			"primitives":[
				{
					"attributes":{
						"POSITION":217,
						"NORMAL":218,
						"TEXCOORD_0":219
					},
					"indices":206,
					"material":1
				}
			]
		},
		{
			"name":"defaultMaterial.058",
			"primitives":[
				{
					"attributes":{
						"POSITION":220,
						"NORMAL":221,
						"TEXCOORD_0":222
					},
					"indices":206,
					"material":1
				}
			]
		},
		{
			"name":"defaultMaterial.059",
			"primitives":[
				{
					"attributes":{
						"POSITION":223,
						"NORMAL":224,
						"TEXCOORD_0":225
					},
					"indices":206,
					"material":1
				}
			]
		},
		{
			"name":"defaultMaterial.060",
			"primitives":[
				{
					"attributes":{
						"POSITION":226,
						"NORMAL":227,
						"TEXCOORD_0":228
					},
					"indices":206,
					"material":1
				}
			]
		},
		{
			"name":"defaultMaterial.061",
			"primitives":[
				{
					"attributes":{
						"POSITION":229,
						"NORMAL":230,
						"TEXCOORD_0":231
					},
					"indices":202,
					"material":1
				}
			]
		},
		{
			"name":"defaultMaterial.062",
			"primitives":[
				{
					"attributes":{
						"POSITION":232,
						"NORMAL":233,
						"TEXCOORD_0":234
					},
					"indices":213,
					"material":1
				}
			]
		},
		{
			"name":"pcb",
			"primitives":[
				{
					"attributes":{
						"POSITION":235,
						"NORMAL":236,
						"TEXCOORD_0":237
					},
					"indices":238,
					"material":0
				},
				{
					"attributes":{
						"POSITION":239,
						"NORMAL":240,
						"TEXCOORD_0":241
					},
					"indices":242,
					"material":1
				}
			]
		}
	],
	"accessors":[
		{
			"bufferView":0,
			"componentType":5126,
			"count":591,
			"max":[
				7.9611687660217285,
				1.5509639978408813,
				1.8765239715576172
			],
			"min":[
				-1.6148649454116821,
				-1.8754600286483765,
				1.14000403881073
			],
			"type":"VEC3"
		},
		{
			"bufferView":1,
			"componentType":5126,
			"count":591,
			"type":"VEC3"
		},
		{
			"bufferView":2,
			"componentType":5126,
			"count":591,
			"type":"VEC2"
		},
		{
			"bufferView":3,
			"componentType":5123,
			"count":2205,
			"type":"SCALAR"
		},
		{
			"bufferView":4,
			"componentType":5126,
			"count":1995,
			"max":[
				7.826663017272949,
				1.5104119777679443,
				1.705312967300415
			],
			"min":[
				-1.5390369892120361,
				-1.803966999053955,
				1.3780930042266846
			],
			"type":"VEC3"
		},
		{
			"bufferView":5,
			"componentType":5126,
			"count":1995,
			"type":"VEC3"
		},
		{
			"bufferView":6,
			"componentType":5126,
			"count":1995,
			"type":"VEC2"
		},
		{
			"bufferView":7,
			"componentType":5123,
			"count":3762,
			"type":"SCALAR"
		},
		{
			"bufferView":8,
			"componentType":5126,
			"count":124,
			"max":[
				-7.952239036560059,
				-32.76908874511719,
				0.4758731722831726
			],
			"min":[
				-20.937070846557617,
				-42.82405090332031,
				-4.898946762084961
			],
			"type":"VEC3"
		},
		{
			"bufferView":9,
			"componentType":5126,
			"count":124,
			"type":"VEC3"
		},
		{
			"bufferView":10,
			"componentType":5126,
			"count":124,
			"type":"VEC2"
		},
		{
			"bufferView":11,
			"componentType":5123,
			"count":480,
			"type":"SCALAR"
		},
		{
			"bufferView":12,
			"componentType":5126,
			"count":124,
			"max":[
				5.422138214111328,
				-32.76908874511719,
				0.4758731722831726
			],
			"min":[
				-7.562690734863281,
				-42.82405090332031,
				-4.898946762084961
			],
			"type":"VEC3"
		},
		{
			"bufferView":13,
			"componentType":5126,
			"count":124,
			"type":"VEC3"
		},
		{
			"bufferView":14,
			"componentType":5126,
			"count":124,
			"type":"VEC2"
		},
		{
			"bufferView":15,
			"componentType":5123,
			"count":480,
			"type":"SCALAR"
		},
		{
			"bufferView":16,
			"componentType":5126,
			"count":124,
			"max":[
				18.79652214050293,
				-32.76908874511719,
				0.4758731722831726
			],
			"min":[
				5.8116865158081055,
				-42.82405090332031,
				-4.898946762084961
			],
			"type":"VEC3"
		},
		{
			"bufferView":17,
			"componentType":5126,
			"count":124,
			"type":"VEC3"
		},
		{
			"bufferView":18,
			"componentType":5126,
			"count":124,
			"type":"VEC2"
		},
		{
			"bufferView":19,
			"componentType":5123,
			"count":480,
			"type":"SCALAR"
		},
		{
			"bufferView":20,
			"componentType":5126,
			"count":140,
			"max":[
				85.63513946533203,
				-32.76908874511719,
				0.4758731722831726
			],
			"min":[
				19.186063766479492,
				-42.82405090332031,
				-4.898946762084961
			],
			"type":"VEC3"
		},
		{
			"bufferView":21,
			"componentType":5126,
			"count":140,
			"type":"VEC3"
		},
		{
			"bufferView":22,
			"componentType":5126,
			"count":140,
			"type":"VEC2"
		},
		{
			"bufferView":23,
			"componentType":5123,
			"count":576,
			"type":"SCALAR"
		},
		{
			"bufferView":24,
			"componentType":5126,
			"count":124,
			"max":[
				99.04276275634766,
				-32.76908874511719,
				0.4758731722831726
			],
			"min":[
				86.05793762207031,
				-42.82405090332031,
				-4.898946762084961
			],
			"type":"VEC3"
		},
		{
			"bufferView":25,
			"componentType":5126,
			"count":124,
			"type":"VEC3"
		},
		{
			"bufferView":26,
			"componentType":5126,
			"count":124,
			"type":"VEC2"
		},
		{
			"bufferView":27,
			"componentType":5123,
			"count":480,
			"type":"SCALAR"
		},
		{
			"bufferView":28,
			"componentType":5126,
			"count":124,
			"max":[
				112.41714477539062,
				-32.76908874511719,
				0.4758731722831726
			],
			"min":[
				99.43231964111328,
				-42.82405090332031,
				-4.898946762084961
			],
			"type":"VEC3"
		},
		{
			"bufferView":29,
			"componentType":5126,
			"count":124,
			"type":"VEC3"
		},
		{
			"bufferView":30,
			"componentType":5126,
			"count":124,
			"type":"VEC2"
		},
		{
			"bufferView":31,
			"componentType":5123,
			"count":480,
			"type":"SCALAR"
		},
		{
			"bufferView":32,
			"componentType":5126,
			"count":124,
			"max":[
				125.79151916503906,
				-32.76908874511719,
				0.4758731722831726
			],
			"min":[
				112.80669403076172,
				-42.82405090332031,
				-4.898946762084961
			],
			"type":"VEC3"
		},
		{
			"bufferView":33,
			"componentType":5126,
			"count":124,
			"type":"VEC3"
		},
		{
			"bufferView":34,
			"componentType":5126,
			"count":124,
			"type":"VEC2"
		},
		{
			"bufferView":35,
			"componentType":5123,
			"count":480,
			"type":"SCALAR"
		},
		{
			"bufferView":36,
			"componentType":5126,
			"count":124,
			"max":[
				139.16590881347656,
				-32.76908874511719,
				0.4758731722831726
			],
			"min":[
				126.18106842041016,
				-42.82405090332031,
				-4.898946762084961
			],
			"type":"VEC3"
		},
		{
			"bufferView":37,
			"componentType":5126,
			"count":124,
			"type":"VEC3"
		},
		{
			"bufferView":38,
			"componentType":5126,
			"count":124,
			"type":"VEC2"
		},
		{
			"bufferView":39,
			"componentType":5123,
			"count":480,
			"type":"SCALAR"
		},
		{
			"bufferView":40,
			"componentType":5126,
			"count":137,
			"max":[
				-0.2799607217311859,
				10.017244338989258,
				2.070690631866455
			],
			"min":[
				-10.456259727478027,
				0.1030140370130539,
				-4.898942470550537
			],
			"type":"VEC3"
		},
		{
			"bufferView":41,
			"componentType":5126,
			"count":137,
			"type":"VEC3"
		},
		{
			"bufferView":42,
			"componentType":5126,
			"count":137,
			"type":"VEC2"
		},
		{
			"bufferView":43,
			"componentType":5123,
			"count":570,
			"type":"SCALAR"
		},
		{
			"bufferView":44,
			"componentType":5126,
			"count":137,
			"max":[
				10.479395866394043,
				10.017244338989258,
				2.070690631866455
			],
			"min":[
				0.30308520793914795,
				0.1030140370130539,
				-4.898942470550537
			],
			"type":"VEC3"
		},
		{
			"bufferView":45,
			"componentType":5126,
			"count":137,
			"type":"VEC3"
		},
		{
			"bufferView":46,
			"componentType":5126,
			"count":137,
			"type":"VEC2"
		},
		{
			"bufferView":47,
			"componentType":5123,
			"count":570,
			"type":"SCALAR"
		},
		{
			"bufferView":48,
			"componentType":5126,
			"count":137,
			"max":[
				21.283777236938477,
				10.017244338989258,
				2.070690631866455
			],
			"min":[
				11.107470512390137,
				0.1030140370130539,
				-4.898942470550537
			],
			"type":"VEC3"
		},
		{
			"bufferView":49,
			"componentType":5126,
			"count":137,
			"type":"VEC3"
		},
		{
			"bufferView":50,
			"componentType":5126,
			"count":137,
			"type":"VEC2"
		},
		{
			"bufferView":51,
			"componentType":5123,
			"count":570,
			"type":"SCALAR"
		},
		{
			"bufferView":52,
			"componentType":5126,
			"count":137,
			"max":[
				32.04312515258789,
				10.017244338989258,
				2.070690631866455
			],
			"min":[
				21.866819381713867,
				0.1030140370130539,
				-4.898942470550537
			],
			"type":"VEC3"
		},
		{
			"bufferView":53,
			"componentType":5126,
			"count":137,
			"type":"VEC3"
		},
		{
			"bufferView":54,
			"componentType":5126,
			"count":137,
			"type":"VEC2"
		},
		{
			"bufferView":55,
			"componentType":5123,
			"count":570,
			"type":"SCALAR"
		},
		{
			"bufferView":56,
			"componentType":5126,
			"count":137,
			"max":[
				42.84750747680664,
				10.017244338989258,
				2.070690631866455
			],
			"min":[
				32.67119216918945,
				0.1030140370130539,
				-4.898942470550537
			],
			"type":"VEC3"
		},
		{
			"bufferView":57,
			"componentType":5126,
			"count":137,
			"type":"VEC3"
		},
		{
			"bufferView":58,
			"componentType":5126,
			"count":137,
			"type":"VEC2"
		},
		{
			"bufferView":59,
			"componentType":5123,
			"count":570,
			"type":"SCALAR"
		},
		{
			"bufferView":60,
			"componentType":5126,
			"count":137,
			"max":[
				53.60686111450195,
				10.017244338989258,
				2.070690631866455
			],
			"min":[
				43.430545806884766,
				0.1030140370130539,
				-4.898942470550537
			],
			"type":"VEC3"
		},
		{
			"bufferView":61,
			"componentType":5126,
			"count":137,
			"type":"VEC3"
		},
		{
			"bufferView":62,
			"componentType":5126,
			"count":137,
			"type":"VEC2"
		},
		{
			"bufferView":63,
			"componentType":5123,
			"count":570,
			"type":"SCALAR"
		},
		{
			"bufferView":64,
			"componentType":5126,
			"count":137,
			"max":[
				64.24674987792969,
				10.017244338989258,
				2.070690631866455
			],
			"min":[
				54.07044982910156,
				0.1030140370130539,
				-4.898942470550537
			],
			"type":"VEC3"
		},
		{
			"bufferView":65,
			"componentType":5126,
			"count":137,
			"type":"VEC3"
		},
		{
			"bufferView":66,
			"componentType":5126,
			"count":137,
			"type":"VEC2"
		},
		{
			"bufferView":67,
			"componentType":5123,
			"count":570,
			"type":"SCALAR"
		},
		{
			"bufferView":68,
			"componentType":5126,
			"count":137,
			"max":[
				74.79078674316406,
				10.017244338989258,
				2.070690631866455
			],
			"min":[
				64.61447143554688,
				0.1030140370130539,
				-4.898942470550537
			],
			"type":"VEC3"
		},
		{
			"bufferView":69,
			"componentType":5126,
			"count":137,
			"type":"VEC3"
		},
		{
			"bufferView":70,
			"componentType":5126,
			"count":137,
			"type":"VEC2"
		},
		{
			"bufferView":71,
			"componentType":5123,
			"count":570,
			"type":"SCALAR"
		},
		{
			"bufferView":72,
			"componentType":5126,
			"count":137,
			"max":[
				85.47140502929688,
				10.017244338989258,
				2.070690631866455
			],
			"min":[
				75.29509735107422,
				0.1030140370130539,
				-4.898942470550537
			],
			"type":"VEC3"
		},
		{
			"bufferView":73,
			"componentType":5126,
			"count":137,
			"type":"VEC3"
		},
		{
			"bufferView":74,
			"componentType":5126,
			"count":137,
			"type":"VEC2"
		},
		{
			"bufferView":75,
			"componentType":5123,
			"count":570,
			"type":"SCALAR"
		},
		{
			"bufferView":76,
			"componentType":5126,
			"count":137,
			"max":[
				96.10454559326172,
				10.017244338989258,
				2.070690631866455
			],
			"min":[
				85.92823791503906,
				0.1030140370130539,
				-4.898942470550537
			],
			"type":"VEC3"
		},
		{
			"bufferView":77,
			"componentType":5126,
			"count":137,
			"type":"VEC3"
		},
		{
			"bufferView":78,
			"componentType":5126,
			"count":137,
			"type":"VEC2"
		},
		{
			"bufferView":79,
			"componentType":5123,
			"count":570,
			"type":"SCALAR"
		},
		{
			"bufferView":80,
			"componentType":5126,
			"count":137,
			"max":[
				106.87921142578125,
				10.017244338989258,
				2.0706892013549805
			],
			"min":[
				96.7029037475586,
				0.10301407426595688,
				-4.898943901062012
			],
			"type":"VEC3"
		},
		{
			"bufferView":81,
			"componentType":5126,
			"count":137,
			"type":"VEC3"
		},
		{
			"bufferView":82,
			"componentType":5126,
			"count":137,
			"type":"VEC2"
		},
		{
			"bufferView":83,
			"componentType":5123,
			"count":570,
			"type":"SCALAR"
		},
		{
			"bufferView":84,
			"componentType":5126,
			"count":137,
			"max":[
				117.4752426147461,
				10.017244338989258,
				2.070690631866455
			],
			"min":[
				107.2989273071289,
				0.1030140370130539,
				-4.898942470550537
			],
			"type":"VEC3"
		},
		{
			"bufferView":85,
			"componentType":5126,
			"count":137,
			"type":"VEC3"
		},
		{
			"bufferView":86,
			"componentType":5126,
			"count":137,
			"type":"VEC2"
		},
		{
			"bufferView":87,
			"componentType":5123,
			"count":570,
			"type":"SCALAR"
		},
		{
			"bufferView":88,
			"componentType":5126,
			"count":137,
			"max":[
				138.9807586669922,
				10.017244338989258,
				2.070690631866455
			],
			"min":[
				118.01557159423828,
				0.1030140370130539,
				-4.898942470550537
			],
			"type":"VEC3"
		},
		{
			"bufferView":89,
			"componentType":5126,
			"count":137,
			"type":"VEC3"
		},
		{
			"bufferView":90,
			"componentType":5126,
			"count":137,
			"type":"VEC2"
		},
		{
			"bufferView":91,
			"componentType":5123,
			"count":570,
			"type":"SCALAR"
		},
		{
			"bufferView":92,
			"componentType":5126,
			"count":137,
			"max":[
				-10.837035179138184,
				10.017244338989258,
				2.070690631866455
			],
			"min":[
				-21.013349533081055,
				0.1030140370130539,
				-4.898942470550537
			],
			"type":"VEC3"
		},
		{
			"bufferView":93,
			"componentType":5126,
			"count":137,
			"type":"VEC3"
		},
		{
			"bufferView":94,
			"componentType":5126,
			"count":137,
			"type":"VEC2"
		},
		{
			"bufferView":95,
			"componentType":5123,
			"count":570,
			"type":"SCALAR"
		},
		{
			"bufferView":96,
			"componentType":5126,
			"count":138,
			"max":[
				5.208461761474609,
				-0.5616269111633301,
				0.7820054292678833
			],
			"min":[
				-5.285674095153809,
				-10.827993392944336,
				-4.89894437789917
			],
			"type":"VEC3"
		},
		{
			"bufferView":97,
			"componentType":5126,
			"count":138,
			"type":"VEC3"
		},
		{
			"bufferView":98,
			"componentType":5126,
			"count":138,
			"type":"VEC2"
		},
		{
			"bufferView":99,
			"componentType":5123,
			"count":570,
			"type":"SCALAR"
		},
		{
			"bufferView":100,
			"componentType":5126,
			"count":138,
			"max":[
				16.108774185180664,
				-0.5616269111633301,
				0.7820054292678833
			],
			"min":[
				5.6146345138549805,
				-10.827993392944336,
				-4.89894437789917
			],
			"type":"VEC3"
		},
		{
			"bufferView":101,
			"componentType":5126,
			"count":138,
			"type":"VEC3"
		},
		{
			"bufferView":102,
			"componentType":5126,
			"count":138,
			"type":"VEC2"
		},
		{
			"bufferView":103,
			"componentType":5123,
			"count":570,
			"type":"SCALAR"
		},
		{
			"bufferView":104,
			"componentType":5126,
			"count":138,
			"max":[
				26.988012313842773,
				-0.5616269111633301,
				0.7820054292678833
			],
			"min":[
				16.493871688842773,
				-10.827993392944336,
				-4.89894437789917
			],
			"type":"VEC3"
		},
		{
			"bufferView":105,
			"componentType":5126,
			"count":138,
			"type":"VEC3"
		},
		{
			"bufferView":106,
			"componentType":5126,
			"count":138,
			"type":"VEC2"
		},
		{
			"bufferView":107,
			"componentType":5123,
			"count":570,
			"type":"SCALAR"
		},
		{
			"bufferView":108,
			"componentType":5126,
			"count":138,
			"max":[
				37.8883171081543,
				-0.5616269111633301,
				0.7820054292678833
			],
			"min":[
				27.39418601989746,
				-10.827993392944336,
				-4.89894437789917
			],
			"type":"VEC3"
		},
		{
			"bufferView":109,
			"componentType":5126,
			"count":138,
			"type":"VEC3"
		},
		{
			"bufferView":110,
			"componentType":5126,
			"count":138,
			"type":"VEC2"
		},
		{
			"bufferView":111,
			"componentType":5123,
			"count":570,
			"type":"SCALAR"
		},
		{
			"bufferView":112,
			"componentType":5126,
			"count":138,
			"max":[
				48.76755905151367,
				-0.5616269111633301,
				0.7820054292678833
			],
			"min":[
				38.27341842651367,
				-10.827993392944336,
				-4.89894437789917
			],
			"type":"VEC3"
		},
		{
			"bufferView":113,
			"componentType":5126,
			"count":138,
			"type":"VEC3"
		},
		{
			"bufferView":114,
			"componentType":5126,
			"count":138,
			"type":"VEC2"
		},
		{
			"bufferView":115,
			"componentType":5123,
			"count":570,
			"type":"SCALAR"
		},
		{
			"bufferView":116,
			"componentType":5126,
			"count":138,
			"max":[
				59.66787338256836,
				-0.5616269111633301,
				0.7820054292678833
			],
			"min":[
				49.17373275756836,
				-10.827993392944336,
				-4.89894437789917
			],
			"type":"VEC3"
		},
		{
			"bufferView":117,
			"componentType":5126,
			"count":138,
			"type":"VEC3"
		},
		{
			"bufferView":118,
			"componentType":5126,
			"count":138,
			"type":"VEC2"
		},
		{
			"bufferView":119,
			"componentType":5123,
			"count":570,
			"type":"SCALAR"
		},
		{
			"bufferView":120,
			"componentType":5126,
			"count":138,
			"max":[
				70.54710388183594,
				-0.5616269111633301,
				0.7820054292678833
			],
			"min":[
				60.0529670715332,
				-10.827993392944336,
				-4.89894437789917
			],
			"type":"VEC3"
		},
		{
			"bufferView":121,
			"componentType":5126,
			"count":138,
			"type":"VEC3"
		},
		{
			"bufferView":122,
			"componentType":5126,
			"count":138,
			"type":"VEC2"
		},
		{
			"bufferView":123,
			"componentType":5126,
			"count":138,
			"max":[
				81.44741821289062,
				-0.5616269111633301,
				0.7820054292678833
			],
			"min":[
				70.95327758789062,
				-10.827993392944336,
				-4.89894437789917
			],
			"type":"VEC3"
		},
		{
			"bufferView":124,
			"componentType":5126,
			"count":138,
			"type":"VEC3"
		},
		{
			"bufferView":125,
			"componentType":5126,
			"count":138,
			"type":"VEC2"
		},
		{
			"bufferView":126,
			"componentType":5126,
			"count":138,
			"max":[
				92.32665252685547,
				-0.5616269111633301,
				0.7820054292678833
			],
			"min":[
				81.83251953125,
				-10.827993392944336,
				-4.89894437789917
			],
			"type":"VEC3"
		},
		{
			"bufferView":127,
			"componentType":5126,
			"count":138,
			"type":"VEC3"
		},
		{
			"bufferView":128,
			"componentType":5126,
			"count":138,
			"type":"VEC2"
		},
		{
			"bufferView":129,
			"componentType":5126,
			"count":138,
			"max":[
				103.22696685791016,
				-0.5616269111633301,
				0.7820054292678833
			],
			"min":[
				92.73282623291016,
				-10.827993392944336,
				-4.89894437789917
			],
			"type":"VEC3"
		},
		{
			"bufferView":130,
			"componentType":5126,
			"count":138,
			"type":"VEC3"
		},
		{
			"bufferView":131,
			"componentType":5126,
			"count":138,
			"type":"VEC2"
		},
		{
			"bufferView":132,
			"componentType":5126,
			"count":138,
			"max":[
				114.10620880126953,
				-0.5616269111633301,
				0.7820054292678833
			],
			"min":[
				103.612060546875,
				-10.827993392944336,
				-4.89894437789917
			],
			"type":"VEC3"
		},
		{
			"bufferView":133,
			"componentType":5126,
			"count":138,
			"type":"VEC3"
		},
		{
			"bufferView":134,
			"componentType":5126,
			"count":138,
			"type":"VEC2"
		},
		{
			"bufferView":135,
			"componentType":5123,
			"count":570,
			"type":"SCALAR"
		},
		{
			"bufferView":136,
			"componentType":5126,
			"count":138,
			"max":[
				124.8518295288086,
				-0.5616269111633301,
				0.7820054292678833
			],
			"min":[
				114.35770416259766,
				-10.827993392944336,
				-4.89894437789917
			],
			"type":"VEC3"
		},
		{
			"bufferView":137,
			"componentType":5126,
			"count":138,
			"type":"VEC3"
		},
		{
			"bufferView":138,
			"componentType":5126,
			"count":138,
			"type":"VEC2"
		},
		{
			"bufferView":139,
			"componentType":5126,
			"count":138,
			"max":[
				138.99630737304688,
				-0.5616269111633301,
				0.7820054292678833
			],
			"min":[
				125.05435180664062,
				-10.827993392944336,
				-4.89894437789917
			],
			"type":"VEC3"
		},
		{
			"bufferView":140,
			"componentType":5126,
			"count":138,
			"type":"VEC3"
		},
		{
			"bufferView":141,
			"componentType":5126,
			"count":138,
			"type":"VEC2"
		},
		{
			"bufferView":142,
			"componentType":5123,
			"count":570,
			"type":"SCALAR"
		},
		{
			"bufferView":143,
			"componentType":5126,
			"count":138,
			"max":[
				-5.609496116638184,
				-0.5616269111633301,
				0.7820054292678833
			],
			"min":[
				-20.968305587768555,
				-10.827993392944336,
				-4.89894437789917
			],
			"type":"VEC3"
		},
		{
			"bufferView":144,
			"componentType":5126,
			"count":138,
			"type":"VEC3"
		},
		{
			"bufferView":145,
			"componentType":5126,
			"count":138,
			"type":"VEC2"
		},
		{
			"bufferView":146,
			"componentType":5123,
			"count":570,
			"type":"SCALAR"
		},
		{
			"bufferView":147,
			"componentType":5126,
			"count":154,
			"max":[
				7.881984710693359,
				-11.263786315917969,
				0.0755992978811264
			],
			"min":[
				-2.6472625732421875,
				-21.446334838867188,
				-4.898947238922119
			],
			"type":"VEC3"
		},
		{
			"bufferView":148,
			"componentType":5126,
			"count":154,
			"type":"VEC3"
		},
		{
			"bufferView":149,
			"componentType":5126,
			"count":154,
			"type":"VEC2"
		},
		{
			"bufferView":150,
			"componentType":5123,
			"count":660,
			"type":"SCALAR"
		},
		{
			"bufferView":151,
			"componentType":5126,
			"count":154,
			"max":[
				18.76119041442871,
				-11.263786315917969,
				0.0755992978811264
			],
			"min":[
				8.231940269470215,
				-21.446334838867188,
				-4.898947238922119
			],
			"type":"VEC3"
		},
		{
			"bufferView":152,
			"componentType":5126,
			"count":154,
			"type":"VEC3"
		},
		{
			"bufferView":153,
			"componentType":5126,
			"count":154,
			"type":"VEC2"
		},
		{
			"bufferView":154,
			"componentType":5123,
			"count":660,
			"type":"SCALAR"
		},
		{
			"bufferView":155,
			"componentType":5126,
			"count":154,
			"max":[
				29.611570358276367,
				-11.263786315917969,
				0.0755992978811264
			],
			"min":[
				19.082319259643555,
				-21.446334838867188,
				-4.898947238922119
			],
			"type":"VEC3"
		},
		{
			"bufferView":156,
			"componentType":5126,
			"count":154,
			"type":"VEC3"
		},
		{
			"bufferView":157,
			"componentType":5126,
			"count":154,
			"type":"VEC2"
		},
		{
			"bufferView":158,
			"componentType":5123,
			"count":660,
			"type":"SCALAR"
		},
		{
			"bufferView":159,
			"componentType":5126,
			"count":154,
			"max":[
				40.49077224731445,
				-11.263786315917969,
				0.0755992978811264
			],
			"min":[
				29.961523056030273,
				-21.446334838867188,
				-4.898947238922119
			],
			"type":"VEC3"
		},
		{
			"bufferView":160,
			"componentType":5126,
			"count":154,
			"type":"VEC3"
		},
		{
			"bufferView":161,
			"componentType":5126,
			"count":154,
			"type":"VEC2"
		},
		{
			"bufferView":162,
			"componentType":5123,
			"count":660,
			"type":"SCALAR"
		},
		{
			"bufferView":163,
			"componentType":5126,
			"count":154,
			"max":[
				51.341148376464844,
				-11.263786315917969,
				0.0755992978811264
			],
			"min":[
				40.81189727783203,
				-21.446334838867188,
				-4.898947238922119
			],
			"type":"VEC3"
		},
		{
			"bufferView":164,
			"componentType":5126,
			"count":154,
			"type":"VEC3"
		},
		{
			"bufferView":165,
			"componentType":5126,
			"count":154,
			"type":"VEC2"
		},
		{
			"bufferView":166,
			"componentType":5126,
			"count":154,
			"max":[
				62.2203483581543,
				-11.263786315917969,
				0.0755992978811264
			],
			"min":[
				51.691104888916016,
				-21.446334838867188,
				-4.898947238922119
			],
			"type":"VEC3"
		},
		{
			"bufferView":167,
			"componentType":5126,
			"count":154,
			"type":"VEC3"
		},
		{
			"bufferView":168,
			"componentType":5126,
			"count":154,
			"type":"VEC2"
		},
		{
			"bufferView":169,
			"componentType":5123,
			"count":660,
			"type":"SCALAR"
		},
		{
			"bufferView":170,
			"componentType":5126,
			"count":154,
			"max":[
				73.07072448730469,
				-11.263786315917969,
				0.0755992978811264
			],
			"min":[
				62.541473388671875,
				-21.446334838867188,
				-4.898947238922119
			],
			"type":"VEC3"
		},
		{
			"bufferView":171,
			"componentType":5126,
			"count":154,
			"type":"VEC3"
		},
		{
			"bufferView":172,
			"componentType":5126,
			"count":154,
			"type":"VEC2"
		},
		{
			"bufferView":173,
			"componentType":5126,
			"count":154,
			"max":[
				83.94992065429688,
				-11.263786315917969,
				0.0755992978811264
			],
			"min":[
				73.42066955566406,
				-21.446334838867188,
				-4.898947238922119
			],
			"type":"VEC3"
		},
		{
			"bufferView":174,
			"componentType":5126,
			"count":154,
			"type":"VEC3"
		},
		{
			"bufferView":175,
			"componentType":5126,
			"count":154,
			"type":"VEC2"
		},
		{
			"bufferView":176,
			"componentType":5123,
			"count":660,
			"type":"SCALAR"
		},
		{
			"bufferView":177,
			"componentType":5126,
			"count":154,
			"max":[
				94.80030059814453,
				-11.263786315917969,
				0.0755992978811264
			],
			"min":[
				84.27106475830078,
				-21.446334838867188,
				-4.898947238922119
			],
			"type":"VEC3"
		},
		{
			"bufferView":178,
			"componentType":5126,
			"count":154,
			"type":"VEC3"
		},
		{
			"bufferView":179,
			"componentType":5126,
			"count":154,
			"type":"VEC2"
		},
		{
			"bufferView":180,
			"componentType":5123,
			"count":660,
			"type":"SCALAR"
		},
		{
			"bufferView":181,
			"componentType":5126,
			"count":154,
			"max":[
				105.67951965332031,
				-11.263786315917969,
				0.0755992978811264
			],
			"min":[
				95.15026092529297,
				-21.446334838867188,
				-4.898947238922119
			],
			"type":"VEC3"
		},
		{
			"bufferView":182,
			"componentType":5126,
			"count":154,
			"type":"VEC3"
		},
		{
			"bufferView":183,
			"componentType":5126,
			"count":154,
			"type":"VEC2"
		},
		{
			"bufferView":184,
			"componentType":5126,
			"count":154,
			"max":[
				116.52989959716797,
				-11.263786315917969,
				0.0755992978811264
			],
			"min":[
				106.00065612792969,
				-21.446334838867188,
				-4.898947238922119
			],
			"type":"VEC3"
		},
		{
			"bufferView":185,
			"componentType":5126,
			"count":154,
			"type":"VEC3"
		},
		{
			"bufferView":186,
			"componentType":5126,
			"count":154,
			"type":"VEC2"
		},
		{
			"bufferView":187,
			"componentType":5123,
			"count":660,
			"type":"SCALAR"
		},
		{
			"bufferView":188,
			"componentType":5126,
			"count":154,
			"max":[
				139.07615661621094,
				-11.263786315917969,
				0.0755992978811264
			],
			"min":[
				116.87985229492188,
				-21.446334838867188,
				-4.898947238922119
			],
			"type":"VEC3"
		},
		{
			"bufferView":189,
			"componentType":5126,
			"count":154,
			"type":"VEC3"
		},
		{
			"bufferView":190,
			"componentType":5126,
			"count":154,
			"type":"VEC2"
		},
		{
			"bufferView":191,
			"componentType":5126,
			"count":154,
			"max":[
				-2.9890360832214355,
				-11.263786315917969,
				0.0755992978811264
			],
			"min":[
				-20.905498504638672,
				-21.446334838867188,
				-4.898947715759277
			],
			"type":"VEC3"
		},
		{
			"bufferView":192,
			"componentType":5126,
			"count":154,
			"type":"VEC3"
		},
		{
			"bufferView":193,
			"componentType":5126,
			"count":154,
			"type":"VEC2"
		},
		{
			"bufferView":194,
			"componentType":5123,
			"count":660,
			"type":"SCALAR"
		},
		{
			"bufferView":195,
			"componentType":5126,
			"count":120,
			"max":[
				2.2771759033203125,
				-21.741519927978516,
				1.0796451568603516
			],
			"min":[
				-20.831098556518555,
				-32.1618537902832,
				-4.898946285247803
			],
			"type":"VEC3"
		},
		{
			"bufferView":196,
			"componentType":5126,
			"count":120,
			"type":"VEC3"
		},
		{
			"bufferView":197,
			"componentType":5126,
			"count":120,
			"type":"VEC2"
		},
		{
			"bufferView":198,
			"componentType":5123,
			"count":474,
			"type":"SCALAR"
		},
		{
			"bufferView":199,
			"componentType":5126,
			"count":120,
			"max":[
				13.090917587280273,
				-21.741519927978516,
				1.0796451568603516
			],
			"min":[
				2.939655065536499,
				-32.1618537902832,
				-4.898946762084961
			],
			"type":"VEC3"
		},
		{
			"bufferView":200,
			"componentType":5126,
			"count":120,
			"type":"VEC3"
		},
		{
			"bufferView":201,
			"componentType":5126,
			"count":120,
			"type":"VEC2"
		},
		{
			"bufferView":202,
			"componentType":5123,
			"count":474,
			"type":"SCALAR"
		},
		{
			"bufferView":203,
			"componentType":5126,
			"count":120,
			"max":[
				23.851259231567383,
				-21.741519927978516,
				1.0796451568603516
			],
			"min":[
				13.699995994567871,
				-32.1618537902832,
				-4.898946762084961
			],
			"type":"VEC3"
		},
		{
			"bufferView":204,
			"componentType":5126,
			"count":120,
			"type":"VEC3"
		},
		{
			"bufferView":205,
			"componentType":5126,
			"count":120,
			"type":"VEC2"
		},
		{
			"bufferView":206,
			"componentType":5123,
			"count":474,
			"type":"SCALAR"
		},
		{
			"bufferView":207,
			"componentType":5126,
			"count":120,
			"max":[
				34.61159896850586,
				-21.741519927978516,
				1.0796451568603516
			],
			"min":[
				24.460336685180664,
				-32.1618537902832,
				-4.898946762084961
			],
			"type":"VEC3"
		},
		{
			"bufferView":208,
			"componentType":5126,
			"count":120,
			"type":"VEC3"
		},
		{
			"bufferView":209,
			"componentType":5126,
			"count":120,
			"type":"VEC2"
		},
		{
			"bufferView":210,
			"componentType":5126,
			"count":120,
			"max":[
				45.37194061279297,
				-21.741519927978516,
				1.0796451568603516
			],
			"min":[
				35.22067642211914,
				-32.1618537902832,
				-4.898946762084961
			],
			"type":"VEC3"
		},
		{
			"bufferView":211,
			"componentType":5126,
			"count":120,
			"type":"VEC3"
		},
		{
			"bufferView":212,
			"componentType":5126,
			"count":120,
			"type":"VEC2"
		},
		{
			"bufferView":213,
			"componentType":5123,
			"count":474,
			"type":"SCALAR"
		},
		{
			"bufferView":214,
			"componentType":5126,
			"count":120,
			"max":[
				56.13228225708008,
				-21.741519927978516,
				1.0796451568603516
			],
			"min":[
				45.981014251708984,
				-32.1618537902832,
				-4.898946762084961
			],
			"type":"VEC3"
		},
		{
			"bufferView":215,
			"componentType":5126,
			"count":120,
			"type":"VEC3"
		},
		{
			"bufferView":216,
			"componentType":5126,
			"count":120,
			"type":"VEC2"
		},
		{
			"bufferView":217,
			"componentType":5126,
			"count":120,
			"max":[
				66.89260864257812,
				-21.741519927978516,
				1.0796451568603516
			],
			"min":[
				56.741355895996094,
				-32.1618537902832,
				-4.898946762084961
			],
			"type":"VEC3"
		},
		{
			"bufferView":218,
			"componentType":5126,
			"count":120,
			"type":"VEC3"
		},
		{
			"bufferView":219,
			"componentType":5126,
			"count":120,
			"type":"VEC2"
		},
		{
			"bufferView":220,
			"componentType":5126,
			"count":120,
			"max":[
				77.65296173095703,
				-21.741519927978516,
				1.0796451568603516
			],
			"min":[
				67.5016860961914,
				-32.1618537902832,
				-4.898946762084961
			],
			"type":"VEC3"
		},
		{
			"bufferView":221,
			"componentType":5126,
			"count":120,
			"type":"VEC3"
		},
		{
			"bufferView":222,
			"componentType":5126,
			"count":120,
			"type":"VEC2"
		},
		{
			"bufferView":223,
			"componentType":5126,
			"count":120,
			"max":[
				88.41329193115234,
				-21.741519927978516,
				1.0796451568603516
			],
			"min":[
				78.26203155517578,
				-32.1618537902832,
				-4.898946762084961
			],
			"type":"VEC3"
		},
		{
			"bufferView":224,
			"componentType":5126,
			"count":120,
			"type":"VEC3"
		},
		{
			"bufferView":225,
			"componentType":5126,
			"count":120,
			"type":"VEC2"
		},
		{
			"bufferView":226,
			"componentType":5126,
			"count":120,
			"max":[
				99.17363739013672,
				-21.741519927978516,
				1.0796451568603516
			],
			"min":[
				89.02236938476562,
				-32.1618537902832,
				-4.898946762084961
			],
			"type":"VEC3"
		},
		{
			"bufferView":227,
			"componentType":5126,
			"count":120,
			"type":"VEC3"
		},
		{
			"bufferView":228,
			"componentType":5126,
			"count":120,
			"type":"VEC2"
		},
		{
			"bufferView":229,
			"componentType":5126,
			"count":120,
			"max":[
				109.93396759033203,
				-21.741519927978516,
				1.0796451568603516
			],
			"min":[
				99.78271484375,
				-32.1618537902832,
				-4.898946762084961
			],
			"type":"VEC3"
		},
		{
			"bufferView":230,
			"componentType":5126,
			"count":120,
			"type":"VEC3"
		},
		{
			"bufferView":231,
			"componentType":5126,
			"count":120,
			"type":"VEC2"
		},
		{
			"bufferView":232,
			"componentType":5126,
			"count":120,
			"max":[
				139.0954132080078,
				-21.741519927978516,
				1.0796451568603516
			],
			"min":[
				110.54303741455078,
				-32.1618537902832,
				-4.898946762084961
			],
			"type":"VEC3"
		},
		{
			"bufferView":233,
			"componentType":5126,
			"count":120,
			"type":"VEC3"
		},
		{
			"bufferView":234,
			"componentType":5126,
			"count":120,
			"type":"VEC2"
		},
		{
			"bufferView":235,
			"componentType":5126,
			"count":7,
			"max":[
				7.7176361083984375,
				1.3682810068130493,
				1.8596709966659546
			],
			"min":[
				-1.2916200160980225,
				-1.70380699634552,
				1.4891719818115234
			],
			"type":"VEC3"
		},
		{
			"bufferView":236,
			"componentType":5126,
			"count":7,
			"type":"VEC3"
		},
		{
			"bufferView":237,
			"componentType":5126,
			"count":7,
			"type":"VEC2"
		},
		{
			"bufferView":238,
			"componentType":5123,
			"count":9,
			"type":"SCALAR"
		},
		{
			"bufferView":239,
			"componentType":5126,
			"count":388,
			"max":[
				7.696457862854004,
				1.4606930017471313,
				1.7003649473190308
			],
			"min":[
				-1.3654611110687256,
				-1.7508569955825806,
				1.3832290172576904
			],
			"type":"VEC3"
		},
		{
			"bufferView":240,
			"componentType":5126,
			"count":388,
			"type":"VEC3"
		},
		{
			"bufferView":241,
			"componentType":5126,
			"count":388,
			"type":"VEC2"
		},
		{
			"bufferView":242,
			"componentType":5123,
			"count":942,
			"type":"SCALAR"
		}
	],
	"bufferViews":[
		{
			"buffer":0,
			"byteLength":7092,
			"byteOffset":0,
			"target":34962
		},
		{
			"buffer":0,
			"byteLength":7092,
			"byteOffset":7092,
			"target":34962
		},
		{
			"buffer":0,
			"byteLength":4728,
			"byteOffset":14184,
			"target":34962
		},
		{
			"buffer":0,
			"byteLength":4410,
			"byteOffset":18912,
			"target":34963
		},
		{
			"buffer":0,
			"byteLength":23940,
			"byteOffset":23324,
			"target":34962
		},
		{
			"buffer":0,
			"byteLength":23940,
			"byteOffset":47264,
			"target":34962
		},
		{
			"buffer":0,
			"byteLength":15960,
			"byteOffset":71204,
			"target":34962
		},
		{
			"buffer":0,
			"byteLength":7524,
			"byteOffset":87164,
			"target":34963
		},
		{
			"buffer":0,
			"byteLength":1488,
			"byteOffset":94688,
			"target":34962
		},
		{
			"buffer":0,
			"byteLength":1488,
			"byteOffset":96176,
			"target":34962
		},
		{
			"buffer":0,
			"byteLength":992,
			"byteOffset":97664,
			"target":34962
		},
		{
			"buffer":0,
			"byteLength":960,
			"byteOffset":98656,
			"target":34963
		},
		{
			"buffer":0,
			"byteLength":1488,
			"byteOffset":99616,
			"target":34962
		},
		{
			"buffer":0,
			"byteLength":1488,
			"byteOffset":101104,
			"target":34962
		},
		{
			"buffer":0,
			"byteLength":992,
			"byteOffset":102592,
			"target":34962
		},
		{
			"buffer":0,
			"byteLength":960,
			"byteOffset":103584,
			"target":34963
		},
		{
			"buffer":0,
			"byteLength":1488,
			"byteOffset":104544,
			"target":34962
		},
		{
			"buffer":0,
			"byteLength":1488,
			"byteOffset":106032,
			"target":34962
		},
		{
			"buffer":0,
			"byteLength":992,
			"byteOffset":107520,
			"target":34962
		},
		{
			"buffer":0,
			"byteLength":960,
			"byteOffset":108512,
			"target":34963
		},
		{
			"buffer":0,
			"byteLength":1680,
			"byteOffset":109472,
			"target":34962
		},
		{
			"buffer":0,
			"byteLength":1680,
			"byteOffset":111152,
			"target":34962
		},
		{
			"buffer":0,
			"byteLength":1120,
			"byteOffset":112832,
			"target":34962
		},
		{
			"buffer":0,
			"byteLength":1152,
			"byteOffset":113952,
			"target":34963
		},
		{
			"buffer":0,
			"byteLength":1488,
			"byteOffset":115104,
			"target":34962
		},
		{
			"buffer":0,
			"byteLength":1488,
			"byteOffset":116592,
			"target":34962
		},
		{
			"buffer":0,
			"byteLength":992,
			"byteOffset":118080,
			"target":34962
		},
		{
			"buffer":0,
			"byteLength":960,
			"byteOffset":119072,
			"target":34963
		},
		{
			"buffer":0,
			"byteLength":1488,
			"byteOffset":120032,
			"target":34962
		},
		{
			"buffer":0,
			"byteLength":1488,
			"byteOffset":121520,
			"target":34962
		},
		{
			"buffer":0,
			"byteLength":992,
			"byteOffset":123008,
			"target":34962
		},
		{
			"buffer":0,
			"byteLength":960,
			"byteOffset":124000,
			"target":34963
		},
		{
			"buffer":0,
			"byteLength":1488,
			"byteOffset":124960,
			"target":34962
		},
		{
			"buffer":0,
			"byteLength":1488,
			"byteOffset":126448,
			"target":34962
		},
		{
			"buffer":0,
			"byteLength":992,
			"byteOffset":127936,
			"target":34962
		},
		{
			"buffer":0,
			"byteLength":960,
			"byteOffset":128928,
			"target":34963
		},
		{
			"buffer":0,
			"byteLength":1488,
			"byteOffset":129888,
			"target":34962
		},
		{
			"buffer":0,
			"byteLength":1488,
			"byteOffset":131376,
			"target":34962
		},
		{
			"buffer":0,
			"byteLength":992,
			"byteOffset":132864,
			"target":34962
		},
		{
			"buffer":0,
			"byteLength":960,
			"byteOffset":133856,
			"target":34963
		},
		{
			"buffer":0,
			"byteLength":1644,
			"byteOffset":134816,
			"target":34962
		},
		{
			"buffer":0,
			"byteLength":1644,
			"byteOffset":136460,
			"target":34962
		},
		{
			"buffer":0,
			"byteLength":1096,
			"byteOffset":138104,
			"target":34962
		},
		{
			"buffer":0,
			"byteLength":1140,
			"byteOffset":139200,
			"target":34963
		},
		{
			"buffer":0,
			"byteLength":1644,
			"byteOffset":140340,
			"target":34962
		},
		{
			"buffer":0,
			"byteLength":1644,
			"byteOffset":141984,
			"target":34962
		},
		{
			"buffer":0,
			"byteLength":1096,
			"byteOffset":143628,
			"target":34962
		},
		{
			"buffer":0,
			"byteLength":1140,
			"byteOffset":144724,
			"target":34963
		},
		{
			"buffer":0,
			"byteLength":1644,
			"byteOffset":145864,
			"target":34962
		},
		{
			"buffer":0,
			"byteLength":1644,
			"byteOffset":147508,
			"target":34962
		},
		{
			"buffer":0,
			"byteLength":1096,
			"byteOffset":149152,
			"target":34962
		},
		{
			"buffer":0,
			"byteLength":1140,
			"byteOffset":150248,
			"target":34963
		},
		{
			"buffer":0,
			"byteLength":1644,
			"byteOffset":151388,
			"target":34962
		},
		{
			"buffer":0,
			"byteLength":1644,
			"byteOffset":153032,
			"target":34962
		},
		{
			"buffer":0,
			"byteLength":1096,
			"byteOffset":154676,
			"target":34962
		},
		{
			"buffer":0,
			"byteLength":1140,
			"byteOffset":155772,
			"target":34963
		},
		{
			"buffer":0,
			"byteLength":1644,
			"byteOffset":156912,
			"target":34962
		},
		{
			"buffer":0,
			"byteLength":1644,
			"byteOffset":158556,
			"target":34962
		},
		{
			"buffer":0,
			"byteLength":1096,
			"byteOffset":160200,
			"target":34962
		},
		{
			"buffer":0,
			"byteLength":1140,
			"byteOffset":161296,
			"target":34963
		},
		{
			"buffer":0,
			"byteLength":1644,
			"byteOffset":162436,
			"target":34962
		},
		{
			"buffer":0,
			"byteLength":1644,
			"byteOffset":164080,
			"target":34962
		},
		{
			"buffer":0,
			"byteLength":1096,
			"byteOffset":165724,
			"target":34962
		},
		{
			"buffer":0,
			"byteLength":1140,
			"byteOffset":166820,
			"target":34963
		},
		{
			"buffer":0,
			"byteLength":1644,
			"byteOffset":167960,
			"target":34962
		},
		{
			"buffer":0,
			"byteLength":1644,
			"byteOffset":169604,
			"target":34962
		},
		{
			"buffer":0,
			"byteLength":1096,
			"byteOffset":171248,
			"target":34962
		},
		{
			"buffer":0,
			"byteLength":1140,
			"byteOffset":172344,
			"target":34963
		},
		{
			"buffer":0,
			"byteLength":1644,
			"byteOffset":173484,
			"target":34962
		},
		{
			"buffer":0,
			"byteLength":1644,
			"byteOffset":175128,
			"target":34962
		},
		{
			"buffer":0,
			"byteLength":1096,
			"byteOffset":176772,
			"target":34962
		},
		{
			"buffer":0,
			"byteLength":1140,
			"byteOffset":177868,
			"target":34963
		},
		{
			"buffer":0,
			"byteLength":1644,
			"byteOffset":179008,
			"target":34962
		},
		{
			"buffer":0,
			"byteLength":1644,
			"byteOffset":180652,
			"target":34962
		},
		{
			"buffer":0,
			"byteLength":1096,
			"byteOffset":182296,
			"target":34962
		},
		{
			"buffer":0,
			"byteLength":1140,
			"byteOffset":183392,
			"target":34963
		},
		{
			"buffer":0,
			"byteLength":1644,
			"byteOffset":184532,
			"target":34962
		},
		{
			"buffer":0,
			"byteLength":1644,
			"byteOffset":186176,
			"target":34962
		},
		{
			"buffer":0,
			"byteLength":1096,
			"byteOffset":187820,
			"target":34962
		},
		{
			"buffer":0,
			"byteLength":1140,
			"byteOffset":188916,
			"target":34963
		},
		{
			"buffer":0,
			"byteLength":1644,
			"byteOffset":190056,
			"target":34962
		},
		{
			"buffer":0,
			"byteLength":1644,
			"byteOffset":191700,
			"target":34962
		},
		{
			"buffer":0,
			"byteLength":1096,
			"byteOffset":193344,
			"target":34962
		},
		{
			"buffer":0,
			"byteLength":1140,
			"byteOffset":194440,
			"target":34963
		},
		{
			"buffer":0,
			"byteLength":1644,
			"byteOffset":195580,
			"target":34962
		},
		{
			"buffer":0,
			"byteLength":1644,
			"byteOffset":197224,
			"target":34962
		},
		{
			"buffer":0,
			"byteLength":1096,
			"byteOffset":198868,
			"target":34962
		},
		{
			"buffer":0,
			"byteLength":1140,
			"byteOffset":199964,
			"target":34963
		},
		{
			"buffer":0,
			"byteLength":1644,
			"byteOffset":201104,
			"target":34962
		},
		{
			"buffer":0,
			"byteLength":1644,
			"byteOffset":202748,
			"target":34962
		},
		{
			"buffer":0,
			"byteLength":1096,
			"byteOffset":204392,
			"target":34962
		},
		{
			"buffer":0,
			"byteLength":1140,
			"byteOffset":205488,
			"target":34963
		},
		{
			"buffer":0,
			"byteLength":1644,
			"byteOffset":206628,
			"target":34962
		},
		{
			"buffer":0,
			"byteLength":1644,
			"byteOffset":208272,
			"target":34962
		},
		{
			"buffer":0,
			"byteLength":1096,
			"byteOffset":209916,
			"target":34962
		},
		{
			"buffer":0,
			"byteLength":1140,
			"byteOffset":211012,
			"target":34963
		},
		{
			"buffer":0,
			"byteLength":1656,
			"byteOffset":212152,
			"target":34962
		},
		{
			"buffer":0,
			"byteLength":1656,
			"byteOffset":213808,
			"target":34962
		},
		{
			"buffer":0,
			"byteLength":1104,
			"byteOffset":215464,
			"target":34962
		},
		{
			"buffer":0,
			"byteLength":1140,
			"byteOffset":216568,
			"target":34963
		},
		{
			"buffer":0,
			"byteLength":1656,
			"byteOffset":217708,
			"target":34962
		},
		{
			"buffer":0,
			"byteLength":1656,
			"byteOffset":219364,
			"target":34962
		},
		{
			"buffer":0,
			"byteLength":1104,
			"byteOffset":221020,
			"target":34962
		},
		{
			"buffer":0,
			"byteLength":1140,
			"byteOffset":222124,
			"target":34963
		},
		{
			"buffer":0,
			"byteLength":1656,
			"byteOffset":223264,
			"target":34962
		},
		{
			"buffer":0,
			"byteLength":1656,
			"byteOffset":224920,
			"target":34962
		},
		{
			"buffer":0,
			"byteLength":1104,
			"byteOffset":226576,
			"target":34962
		},
		{
			"buffer":0,
			"byteLength":1140,
			"byteOffset":227680,
			"target":34963
		},
		{
			"buffer":0,
			"byteLength":1656,
			"byteOffset":228820,
			"target":34962
		},
		{
			"buffer":0,
			"byteLength":1656,
			"byteOffset":230476,
			"target":34962
		},
		{
			"buffer":0,
			"byteLength":1104,
			"byteOffset":232132,
			"target":34962
		},
		{
			"buffer":0,
			"byteLength":1140,
			"byteOffset":233236,
			"target":34963
		},
		{
			"buffer":0,
			"byteLength":1656,
			"byteOffset":234376,
			"target":34962
		},
		{
			"buffer":0,
			"byteLength":1656,
			"byteOffset":236032,
			"target":34962
		},
		{
			"buffer":0,
			"byteLength":1104,
			"byteOffset":237688,
			"target":34962
		},
		{
			"buffer":0,
			"byteLength":1140,
			"byteOffset":238792,
			"target":34963
		},
		{
			"buffer":0,
			"byteLength":1656,
			"byteOffset":239932,
			"target":34962
		},
		{
			"buffer":0,
			"byteLength":1656,
			"byteOffset":241588,
			"target":34962
		},
		{
			"buffer":0,
			"byteLength":1104,
			"byteOffset":243244,
			"target":34962
		},
		{
			"buffer":0,
			"byteLength":1140,
			"byteOffset":244348,
			"target":34963
		},
		{
			"buffer":0,
			"byteLength":1656,
			"byteOffset":245488,
			"target":34962
		},
		{
			"buffer":0,
			"byteLength":1656,
			"byteOffset":247144,
			"target":34962
		},
		{
			"buffer":0,
			"byteLength":1104,
			"byteOffset":248800,
			"target":34962
		},
		{
			"buffer":0,
			"byteLength":1656,
			"byteOffset":249904,
			"target":34962
		},
		{
			"buffer":0,
			"byteLength":1656,
			"byteOffset":251560,
			"target":34962
		},
		{
			"buffer":0,
			"byteLength":1104,
			"byteOffset":253216,
			"target":34962
		},
		{
			"buffer":0,
			"byteLength":1656,
			"byteOffset":254320,
			"target":34962
		},
		{
			"buffer":0,
			"byteLength":1656,
			"byteOffset":255976,
			"target":34962
		},
		{
			"buffer":0,
			"byteLength":1104,
			"byteOffset":257632,
			"target":34962
		},
		{
			"buffer":0,
			"byteLength":1656,
			"byteOffset":258736,
			"target":34962
		},
		{
			"buffer":0,
			"byteLength":1656,
			"byteOffset":260392,
			"target":34962
		},
		{
			"buffer":0,
			"byteLength":1104,
			"byteOffset":262048,
			"target":34962
		},
		{
			"buffer":0,
			"byteLength":1656,
			"byteOffset":263152,
			"target":34962
		},
		{
			"buffer":0,
			"byteLength":1656,
			"byteOffset":264808,
			"target":34962
		},
		{
			"buffer":0,
			"byteLength":1104,
			"byteOffset":266464,
			"target":34962
		},
		{
			"buffer":0,
			"byteLength":1140,
			"byteOffset":267568,
			"target":34963
		},
		{
			"buffer":0,
			"byteLength":1656,
			"byteOffset":268708,
			"target":34962
		},
		{
			"buffer":0,
			"byteLength":1656,
			"byteOffset":270364,
			"target":34962
		},
		{
			"buffer":0,
			"byteLength":1104,
			"byteOffset":272020,
			"target":34962
		},
		{
			"buffer":0,
			"byteLength":1656,
			"byteOffset":273124,
			"target":34962
		},
		{
			"buffer":0,
			"byteLength":1656,
			"byteOffset":274780,
			"target":34962
		},
		{
			"buffer":0,
			"byteLength":1104,
			"byteOffset":276436,
			"target":34962
		},
		{
			"buffer":0,
			"byteLength":1140,
			"byteOffset":277540,
			"target":34963
		},
		{
			"buffer":0,
			"byteLength":1656,
			"byteOffset":278680,
			"target":34962
		},
		{
			"buffer":0,
			"byteLength":1656,
			"byteOffset":280336,
			"target":34962
		},
		{
			"buffer":0,
			"byteLength":1104,
			"byteOffset":281992,
			"target":34962
		},
		{
			"buffer":0,
			"byteLength":1140,
			"byteOffset":283096,
			"target":34963
		},
		{
			"buffer":0,
			"byteLength":1848,
			"byteOffset":284236,
			"target":34962
		},
		{
			"buffer":0,
			"byteLength":1848,
			"byteOffset":286084,
			"target":34962
		},
		{
			"buffer":0,
			"byteLength":1232,
			"byteOffset":287932,
			"target":34962
		},
		{
			"buffer":0,
			"byteLength":1320,
			"byteOffset":289164,
			"target":34963
		},
		{
			"buffer":0,
			"byteLength":1848,
			"byteOffset":290484,
			"target":34962
		},
		{
			"buffer":0,
			"byteLength":1848,
			"byteOffset":292332,
			"target":34962
		},
		{
			"buffer":0,
			"byteLength":1232,
			"byteOffset":294180,
			"target":34962
		},
		{
			"buffer":0,
			"byteLength":1320,
			"byteOffset":295412,
			"target":34963
		},
		{
			"buffer":0,
			"byteLength":1848,
			"byteOffset":296732,
			"target":34962
		},
		{
			"buffer":0,
			"byteLength":1848,
			"byteOffset":298580,
			"target":34962
		},
		{
			"buffer":0,
			"byteLength":1232,
			"byteOffset":300428,
			"target":34962
		},
		{
			"buffer":0,
			"byteLength":1320,
			"byteOffset":301660,
			"target":34963
		},
		{
			"buffer":0,
			"byteLength":1848,
			"byteOffset":302980,
			"target":34962
		},
		{
			"buffer":0,
			"byteLength":1848,
			"byteOffset":304828,
			"target":34962
		},
		{
			"buffer":0,
			"byteLength":1232,
			"byteOffset":306676,
			"target":34962
		},
		{
			"buffer":0,
			"byteLength":1320,
			"byteOffset":307908,
			"target":34963
		},
		{
			"buffer":0,
			"byteLength":1848,
			"byteOffset":309228,
			"target":34962
		},
		{
			"buffer":0,
			"byteLength":1848,
			"byteOffset":311076,
			"target":34962
		},
		{
			"buffer":0,
			"byteLength":1232,
			"byteOffset":312924,
			"target":34962
		},
		{
			"buffer":0,
			"byteLength":1848,
			"byteOffset":314156,
			"target":34962
		},
		{
			"buffer":0,
			"byteLength":1848,
			"byteOffset":316004,
			"target":34962
		},
		{
			"buffer":0,
			"byteLength":1232,
			"byteOffset":317852,
			"target":34962
		},
		{
			"buffer":0,
			"byteLength":1320,
			"byteOffset":319084,
			"target":34963
		},
		{
			"buffer":0,
			"byteLength":1848,
			"byteOffset":320404,
			"target":34962
		},
		{
			"buffer":0,
			"byteLength":1848,
			"byteOffset":322252,
			"target":34962
		},
		{
			"buffer":0,
			"byteLength":1232,
			"byteOffset":324100,
			"target":34962
		},
		{
			"buffer":0,
			"byteLength":1848,
			"byteOffset":325332,
			"target":34962
		},
		{
			"buffer":0,
			"byteLength":1848,
			"byteOffset":327180,
			"target":34962
		},
		{
			"buffer":0,
			"byteLength":1232,
			"byteOffset":329028,
			"target":34962
		},
		{
			"buffer":0,
			"byteLength":1320,
			"byteOffset":330260,
			"target":34963
		},
		{
			"buffer":0,
			"byteLength":1848,
			"byteOffset":331580,
			"target":34962
		},
		{
			"buffer":0,
			"byteLength":1848,
			"byteOffset":333428,
			"target":34962
		},
		{
			"buffer":0,
			"byteLength":1232,
			"byteOffset":335276,
			"target":34962
		},
		{
			"buffer":0,
			"byteLength":1320,
			"byteOffset":336508,
			"target":34963
		},
		{
			"buffer":0,
			"byteLength":1848,
			"byteOffset":337828,
			"target":34962
		},
		{
			"buffer":0,
			"byteLength":1848,
			"byteOffset":339676,
			"target":34962
		},
		{
			"buffer":0,
			"byteLength":1232,
			"byteOffset":341524,
			"target":34962
		},
		{
			"buffer":0,
			"byteLength":1848,
			"byteOffset":342756,
			"target":34962
		},
		{
			"buffer":0,
			"byteLength":1848,
			"byteOffset":344604,
			"target":34962
		},
		{
			"buffer":0,
			"byteLength":1232,
			"byteOffset":346452,
			"target":34962
		},
		{
			"buffer":0,
			"byteLength":1320,
			"byteOffset":347684,
			"target":34963
		},
		{
			"buffer":0,
			"byteLength":1848,
			"byteOffset":349004,
			"target":34962
		},
		{
			"buffer":0,
			"byteLength":1848,
			"byteOffset":350852,
			"target":34962
		},
		{
			"buffer":0,
			"byteLength":1232,
			"byteOffset":352700,
			"target":34962
		},
		{
			"buffer":0,
			"byteLength":1848,
			"byteOffset":353932,
			"target":34962
		},
		{
			"buffer":0,
			"byteLength":1848,
			"byteOffset":355780,
			"target":34962
		},
		{
			"buffer":0,
			"byteLength":1232,
			"byteOffset":357628,
			"target":34962
		},
		{
			"buffer":0,
			"byteLength":1320,
			"byteOffset":358860,
			"target":34963
		},
		{
			"buffer":0,
			"byteLength":1440,
			"byteOffset":360180,
			"target":34962
		},
		{
			"buffer":0,
			"byteLength":1440,
			"byteOffset":361620,
			"target":34962
		},
		{
			"buffer":0,
			"byteLength":960,
			"byteOffset":363060,
			"target":34962
		},
		{
			"buffer":0,
			"byteLength":948,
			"byteOffset":364020,
			"target":34963
		},
		{
			"buffer":0,
			"byteLength":1440,
			"byteOffset":364968,
			"target":34962
		},
		{
			"buffer":0,
			"byteLength":1440,
			"byteOffset":366408,
			"target":34962
		},
		{
			"buffer":0,
			"byteLength":960,
			"byteOffset":367848,
			"target":34962
		},
		{
			"buffer":0,
			"byteLength":948,
			"byteOffset":368808,
			"target":34963
		},
		{
			"buffer":0,
			"byteLength":1440,
			"byteOffset":369756,
			"target":34962
		},
		{
			"buffer":0,
			"byteLength":1440,
			"byteOffset":371196,
			"target":34962
		},
		{
			"buffer":0,
			"byteLength":960,
			"byteOffset":372636,
			"target":34962
		},
		{
			"buffer":0,
			"byteLength":948,
			"byteOffset":373596,
			"target":34963
		},
		{
			"buffer":0,
			"byteLength":1440,
			"byteOffset":374544,
			"target":34962
		},
		{
			"buffer":0,
			"byteLength":1440,
			"byteOffset":375984,
			"target":34962
		},
		{
			"buffer":0,
			"byteLength":960,
			"byteOffset":377424,
			"target":34962
		},
		{
			"buffer":0,
			"byteLength":1440,
			"byteOffset":378384,
			"target":34962
		},
		{
			"buffer":0,
			"byteLength":1440,
			"byteOffset":379824,
			"target":34962
		},
		{
			"buffer":0,
			"byteLength":960,
			"byteOffset":381264,
			"target":34962
		},
		{
			"buffer":0,
			"byteLength":948,
			"byteOffset":382224,
			"target":34963
		},
		{
			"buffer":0,
			"byteLength":1440,
			"byteOffset":383172,
			"target":34962
		},
		{
			"buffer":0,
			"byteLength":1440,
			"byteOffset":384612,
			"target":34962
		},
		{
			"buffer":0,
			"byteLength":960,
			"byteOffset":386052,
			"target":34962
		},
		{
			"buffer":0,
			"byteLength":1440,
			"byteOffset":387012,
			"target":34962
		},
		{
			"buffer":0,
			"byteLength":1440,
			"byteOffset":388452,
			"target":34962
		},
		{
			"buffer":0,
			"byteLength":960,
			"byteOffset":389892,
			"target":34962
		},
		{
			"buffer":0,
			"byteLength":1440,
			"byteOffset":390852,
			"target":34962
		},
		{
			"buffer":0,
			"byteLength":1440,
			"byteOffset":392292,
			"target":34962
		},
		{
			"buffer":0,
			"byteLength":960,
			"byteOffset":393732,
			"target":34962
		},
		{
			"buffer":0,
			"byteLength":1440,
			"byteOffset":394692,
			"target":34962
		},
		{
			"buffer":0,
			"byteLength":1440,
			"byteOffset":396132,
			"target":34962
		},
		{
			"buffer":0,
			"byteLength":960,
			"byteOffset":397572,
			"target":34962
		},
		{
			"buffer":0,
			"byteLength":1440,
			"byteOffset":398532,
			"target":34962
		},
		{
			"buffer":0,
			"byteLength":1440,
			"byteOffset":399972,
			"target":34962
		},
		{
			"buffer":0,
			"byteLength":960,
			"byteOffset":401412,
			"target":34962
		},
		{
			"buffer":0,
			"byteLength":1440,
			"byteOffset":402372,
			"target":34962
		},
		{
			"buffer":0,
			"byteLength":1440,
			"byteOffset":403812,
			"target":34962
		},
		{
			"buffer":0,
			"byteLength":960,
			"byteOffset":405252,
			"target":34962
		},
		{
			"buffer":0,
			"byteLength":1440,
			"byteOffset":406212,
			"target":34962
		},
		{
			"buffer":0,
			"byteLength":1440,
			"byteOffset":407652,
			"target":34962
		},
		{
			"buffer":0,
			"byteLength":960,
			"byteOffset":409092,
			"target":34962
		},
		{
			"buffer":0,
			"byteLength":84,
			"byteOffset":410052,
			"target":34962
		},
		{
			"buffer":0,
			"byteLength":84,
			"byteOffset":410136,
			"target":34962
		},
		{
			"buffer":0,
			"byteLength":56,
			"byteOffset":410220,
			"target":34962
		},
		{
			"buffer":0,
			"byteLength":18,
			"byteOffset":410276,
			"target":34963
		},
		{
			"buffer":0,
			"byteLength":4656,
			"byteOffset":410296,
			"target":34962
		},
		{
			"buffer":0,
			"byteLength":4656,
			"byteOffset":414952,
			"target":34962
		},
		{
			"buffer":0,
			"byteLength":3104,
			"byteOffset":419608,
			"target":34962
		},
		{
			"buffer":0,
			"byteLength":1884,
			"byteOffset":422712,
			"target":34963
		}
	],
	"buffers":[
		{
			"byteLength":424596,
			"uri":"key60.bin"
		}
	]
}
